/* XPM */
static char *star1687093572[] = {
/* columns rows colors chars-per-pixel */
"64 64 193 2 ",
"   c None",
".  c #F48B19",
"X  c #F48C19",
"o  c #F48D19",
"O  c #F48E19",
"+  c #F48F19",
"@  c #F69C17",
"#  c #F69F17",
"$  c #F49019",
"%  c #F49119",
"&  c #F59318",
"*  c #F49418",
"=  c #F59418",
"-  c #F49618",
";  c #F49718",
":  c #F49918",
">  c #F59918",
",  c #F49819",
"<  c #F59919",
"1  c #F49A18",
"2  c #F59A18",
"3  c #F49B18",
"4  c #F49C18",
"5  c #F49D18",
"6  c #F49F18",
"7  c #F6A017",
"8  c #F6A117",
"9  c #F6A417",
"0  c #F2A817",
"q  c #F7A916",
"w  c #F6A817",
"e  c #F7AA16",
"r  c #F7AB16",
"t  c #F6AC15",
"y  c #F7AC15",
"u  c #F7AC16",
"i  c #F7AD16",
"p  c #F7AF16",
"a  c #F7AE17",
"s  c #F6AF17",
"d  c #F7AF17",
"f  c #F8AD17",
"g  c #F5A119",
"h  c #F4A218",
"j  c #F4A318",
"k  c #F2A41A",
"l  c #F2A61A",
"z  c #F4A419",
"x  c #F4A519",
"c  c #F4A619",
"v  c #F4A719",
"b  c #F5A719",
"n  c #F4A61A",
"m  c #F4A21C",
"M  c #F3A918",
"N  c #F2A819",
"B  c #F3A919",
"V  c #F3AB19",
"C  c #F2A81A",
"Z  c #F6A818",
"A  c #F3AD19",
"S  c #EFB516",
"D  c #EFB616",
"F  c #EFB716",
"G  c #EFB717",
"H  c #EFB817",
"J  c #F6B017",
"K  c #F7B017",
"L  c #F6B117",
"P  c #F3B21A",
"I  c #F3B31A",
"U  c #F3B31B",
"Y  c #F6B118",
"T  c #F6B218",
"R  c #F7B218",
"E  c #F6B318",
"W  c #F1B619",
"Q  c #F0B719",
"!  c #F1B719",
"~  c #F3B719",
"^  c #F2B61A",
"/  c #F2B71A",
"(  c #F6B418",
")  c #F7B418",
"_  c #F6B419",
"`  c #F6B519",
"'  c #F7B519",
"]  c #F5B719",
"[  c #F6B618",
"{  c #F6B619",
"}  c #F6B719",
"|  c #F5B71A",
" . c #F6B71A",
".. c #F0B819",
"X. c #F1B819",
"o. c #F0B919",
"O. c #F1B919",
"+. c #F0BA18",
"@. c #F0BB18",
"#. c #F1BA19",
"$. c #F1B81A",
"%. c #F2B81A",
"&. c #F2B91A",
"*. c #F2B81B",
"=. c #F1BB1A",
"-. c #F5B919",
";. c #F6B919",
":. c #F5B81A",
">. c #F5B91A",
",. c #F6B91A",
"<. c #F5BA1A",
"1. c #F5BB1A",
"2. c #F5BB1B",
"3. c #F6BA1A",
"4. c #F6BB1A",
"5. c #F6BB1B",
"6. c #F0BC19",
"7. c #F0BD19",
"8. c #F2BD1A",
"9. c #F2BC1B",
"0. c #F3BC1B",
"q. c #F2BD1B",
"w. c #F1BE1A",
"e. c #F0BF1A",
"r. c #F1BF1A",
"t. c #F3BF1A",
"y. c #F4BC1B",
"u. c #F5BC1B",
"i. c #F5BD1B",
"p. c #F5BE1B",
"a. c #F1BF1D",
"s. c #F5BE1C",
"d. c #F5BF1C",
"f. c #F5BF1D",
"g. c #F3C11B",
"h. c #F0C21B",
"j. c #F0C31B",
"k. c #F2C31C",
"l. c #F3C21D",
"z. c #F2C21E",
"x. c #F5C01C",
"c. c #F4C11C",
"v. c #F4C01D",
"b. c #F4C21C",
"n. c #F4C21D",
"m. c #F5C21D",
"M. c #F4C31D",
"N. c #F5C31D",
"B. c #F0C41C",
"V. c #F0C51C",
"C. c #F1C51C",
"Z. c #F3C41D",
"A. c #F1C61C",
"S. c #F1C61D",
"D. c #F3C71D",
"F. c #F3C61E",
"G. c #F3C71E",
"H. c #F4C41D",
"J. c #F5C41D",
"K. c #F4C51D",
"L. c #F5C51D",
"P. c #F4C71D",
"I. c #F4C41E",
"U. c #F4C51E",
"Y. c #F4C61E",
"T. c #F5C61E",
"R. c #F4C71E",
"E. c #F3C81E",
"W. c #F3C91E",
"Q. c #F3C81F",
"!. c #F2C91F",
"~. c #F3C91F",
"^. c #F1CA1E",
"/. c #F3CA1F",
"(. c #F3CB1F",
"). c #F4C81E",
"_. c #F4C91E",
"`. c #F3CC1F",
"'. c #F3CD1F",
"]. c #F2CC20",
"[. c #F3CC20",
"{. c #F3CD20",
"}. c #F1CF20",
"|. c #F3CE20",
" X c #F2CF20",
".X c #F3CF20",
"XX c #F3CF21",
"oX c #F2D021",
"OX c #F2D121",
"+X c #F2D221",
"@X c #F3D221",
"#X c #F2D322",
"$X c #F2D422",
/* pixels */
"                                                                                                                                ",
"                                                              K.                                                                ",
"                                                            `.$Xf u                                                             ",
"                                                          K.$X$Xf r                                                             ",
"                                                          {.$X$Xu u f                                                           ",
"                                                          $X$X$Xu u u                                                           ",
"                                                        `.$X$X$Xu u u u                                                         ",
"                                                        $X$X$X$Xu u u u                                                         ",
"                                                      {.$X$X$X$Xu u u u u                                                       ",
"                                                      $X$X$X$X$Xu u u u u                                                       ",
"                                                    `.$X$X$X$X$Xu u u u u u                                                     ",
"                                                    $X$X$X$X$X$Xu u u u u u                                                     ",
"                                                  `.$X$X$X$X$X$Xu u u u u u u                                                   ",
"                                                  $X$X$X$X$X$X$Xu u u u u u u                                                   ",
"                                                `.$X$X$X$X$X$X$Xu u u u u u u r                                                 ",
"                                                $X$X$X$X$X$X$X$Xu u u u u u u u                                                 ",
"                                              {.$X$X$X$X$X$X$X$Xu u u u u u u u f                                               ",
"                                              $X$X$X$X$X$X$X$X$Xu u u u u u u u r                                               ",
"                                            E.$X$X$X$X$X$X$X$X$Xu u u u u u u u u u                                             ",
"                                            $X$X$X$X$X$X$X$X$X$Xu u u u u u u u u u                                             ",
"                                    1.1.1.m.$X$X$X$X$X$X$X$X$X$Xu u u u u u u u u r u.S.K.                                      ",
"                        1.` ` E u r r u u u `.$X$X$X$X$X$X$X$X$Xu u u u u u u u u ` $X$X$X$X$X@X{.E.K.S.                        ",
"        b b g b ` u u u u u u u u u u u u u E OX$X$X$X$X$X$X$X$Xu u u u u u u u f '.$X$X$X$X$X$X$X$X$X$X$X$XOX{.[.K.z.          ",
"  < + . . . . = u u u u u u u u u u u u u u r 1.$X$X$X$X$X$X$X$Xu u u u u u u u ).$X$X$X$X$X$X$X$X$X$X$X$X$XOX$X$XOX$X$X$X{.[.  ",
"b X . . . . . . < r u u u u u u u u u u u u u u K.$X$X$X$X$X$X$Xu u u u u u u u.$X$X$X$X$X$X$X$X$X$X$X$X$X$X$X$X$X$X$X$X$X$X$XK.",
"G H W k + . . . + 7 u u u u u u u u u u u u u u u {.$X$X$X$X$X$Xu u u u u u L OX$X$X$X$X$X$X$X$X$X$X$X$X$X$X$X$X$X$X$X$X[.>.E a ",
"#.D D D H W k + . . 7 u u u u u u u u u u u u u u ` $X$X$X$X$X$Xu u u u u u `.$X$X$X$X$X$X$X$X$X$X$X$X$X$X$X$X$X$X[.>.a u u e ` ",
"  #.D D D D D G W C + 7 u u u u u u u u u u u u u u d.$X$X$X$X$Xu u u u u m.$X$X$X$X$X$X$X$X$X$X$X$X$X$X$XOX).u.a u r r u f `   ",
"    #.D D D D D D D D #.P a u u u u u u u u u u u u u E.$X$X$X$Xu u f e 1.$X$X$X$X$X$X$X$X$X$X$X$XOXOX[.1.u u u u u u u u `     ",
"      #.D D D D D D D D D S.E.1.a u u u u u u f u u u u OX$X$X$Xu u u E OXOX$X$X$X$X$X$X$X$X$XOXK.1.f e u u u u u u u u `       ",
"        W D D D D D D D D D S.$X$X[.1.a u r u e u u u u 1.$X$X$Xu u u E.$X$X$X$X$X$X$X$XOXK.` u u u r u u u u u u u u `         ",
"          #.D D D D D D D D D S.$X$X$X$X[.1.E e u u u u e m.$X$Xu u d.$X$X$X$X$X$XOXK.` u u u u u u u u u u u u u u `           ",
"            W Q D D D D D D D D S.$X$X$X$X$X$X`.u.L u r u f {.$Xu ( $X$X$X$X{.m.` u u u u u u u u u u u u u u u u `             ",
"              #.D D D D D D D D D V.$X$X$X$X$X$X$X$X`.d.L e E OXL `.$X`.z.` u u u u u u u u u u u u u u u u u u 1.              ",
"                #.D D D D D D D D D V.$X$X$X$X$X$X$X$X$X$X{.d.u.m.m.L u u u u u u u u u u u u u u u u u r u f `                 ",
"                  W D D D D D D D D D j.$X$X$X$X$X$X$X$X$X{.m.K.m.g.` r u u u u u u u u u u u u u u u u f e 1.                  ",
"                    *.Q D D D D D D D D h.$X$X$X$X$X{.m.` u 1.OXf '.$XOXb.( u u u u u u u u u u u u u u u 1.                    ",
"                      W D D D D D D D D D g.$XE.u.L u r u u {.OXu ` OX$X$X$XOXm.` r u u u u u u u u u u `                       ",
"                        *.D D D D D D D 0 : r u u u u u f K.$X$Xu u m.OX$X$XOX$X$XOXK.` u u u u u u u `                         ",
"                          W D D D 0 : X . + 9 u u u u u m.$X$X$Xu u u E.$X$X$X$X$X$X$X$XOXK.` f u u 1.                          ",
"                            ` 1 X . . . . X u u u u u ` OXOX$X$Xu u u L OX$X$X$X$X$X$X$X$X$X$XOXK.1.                            ",
"                            k X . . . . . & u u u u u [.$X$X$X$Xu u u f ` $X$X$X$X$X$X$X$X$X$X$XOXK.                            ",
"                            5 X . . . . . : u u r u K.$X$X$X$X$Xu u u u u K.$X$X$X$X$X$X$X$X$X$X$XK.                            ",
"                            = X . . . . . 7 u u r d.$X$X$X$X$X$Xu u u u u u `.$X$X$X$X$X$X$X$X$X$X{.                            ",
"                            $ . . . . . . 9 u u E @XOX$X$X$X$X$Xu u u u u u L OX$X$X$X$X$X$X$X$X$X{.                            ",
"                            . . . . . . . r u u ).$X$X$X$X$X$X$Xu u u u u u u u.$X$X$X$X$X$X$X$X$X$X                            ",
"                          C . . . . . . X u u m.$X$X$X$X$X$X$X$Xu u u u u u u u K.$X$X$X$X$X$X$X$X$Xm.                          ",
"                          b . . . . . . - u 1.OX$X$X$X$X$X$X$X$Xu u u u u u u u a OX$X$X$X$X$X$X$X$XK.                          ",
"                          5 + . . . . . < u {.$X$X$X$X$X$X$X$X$Xu u u u u u u u r ` $X$X$X$X$X$X$X$X).                          ",
"                          = . . . . . . 7 E.$X$X$X$X$X$X$X$X$X$Xu u u u u u u u u r d.$X$X$X$X$X$X$X[.                          ",
"                          + . . . . . . d.$X$X$X$X$X$X$X$X$X$X$Xu u u u u u u u u u f E.$X$X$X$X$X$X{.                          ",
"                          . . . . . . k OX$X$X$X$X$X$X$X$X$X$X$Xu u u u u u u u u u e L OX$X$X$X$X$X$X                          ",
"                        C X . . . . . 0.$X$X$X$X$X$X$X$X$X$X$X$Xu r r u u u u u u u u u 1.OX$X$X$X$X$Xm.                        ",
"                        7 X . . . X 0.h.$X$X$X$X$X$X$X$X$X$X{.K.1.E u u u u u u u u u u u m.$X$X$X$X$XS.                        ",
"                        1 . . . X U H V.$X$X$X$X$X$X$X$XOXK.        1.E e f u u u u u u u u {.$X$X$X$X).                        ",
"                        * . . . 1 H D E.$X$X$X$X$X$XOXS.                1.L u u u u u u u r E OX$X$X$X{.                        ",
"                        + . . . 0.D D }.$X$X$X$XOXK.                        1.L u u u u u u u 1.$X$X$XOX                        ",
"                      a . . . 0.D D D $X$X$XOXE.z.                              1.a u u u u u u K.$X$X$X                        ",
"                      C . + C H D D D OX$XE.m.                                      1.a u e e u d {.$X$Xz.                      ",
"                      g . $ @.D D D D S.g.                                              1.d f u f ` $X$XK.                      ",
"                      7 . 0.D D D 0.H                                                       1.u u r d.$XK.                      ",
"                      C W D H H 0.                                                              1.u r [.m.                      ",
"                        #.g.0.                                                                      1.`                         ",
"                                                                                                                                "
};
