/* XPM */
static char *_84cce5ad795429ab370c0a8040df527yngqCHzzHOJ3Pr75[] = {
/* columns rows colors chars-per-pixel */
"64 64 154 2 ",
"   c #000000",
".  c #000000",
"X  c #000000",
"o  c #000000",
"O  c #000000",
"+  c #000000",
"@  c #000000",
"#  c #000000",
"$  c #000000",
"%  c #000000",
"&  c #000000",
"*  c #000000",
"=  c #000000",
"-  c #000000",
";  c #000000",
":  c #000000",
">  c #000000",
",  c #000000",
"<  c #000000",
"1  c #000000",
"2  c #000000",
"3  c #000000",
"4  c #000000",
"5  c #000000",
"6  c #000000",
"7  c #000000",
"8  c #000000",
"9  c #000000",
"0  c #000000",
"q  c #000000",
"w  c #000000",
"e  c #000000",
"r  c #000000",
"t  c #000000",
"y  c #000000",
"u  c #000000",
"i  c #000000",
"p  c #000000",
"a  c #000000",
"s  c #000000",
"d  c #000000",
"f  c #000000",
"g  c #000000",
"h  c #000000",
"j  c #000000",
"k  c #000000",
"l  c #000000",
"z  c #000000",
"x  c #000000",
"c  c #000000",
"v  c #000000",
"b  c #000000",
"n  c #000000",
"m  c #000000",
"M  c #000000",
"N  c #000000",
"B  c #000000",
"V  c #000000",
"C  c #000000",
"Z  c #000000",
"A  c #000000",
"S  c #000000",
"D  c #000000",
"F  c #000000",
"G  c #000000",
"H  c #000000",
"J  c #000000",
"K  c #000000",
"L  c #000000",
"P  c #000000",
"I  c #000000",
"U  c #000000",
"Y  c #000000",
"T  c #000000",
"R  c #000000",
"E  c #000000",
"W  c #000000",
"Q  c #000000",
"!  c #000000",
"~  c #000000",
"^  c #000000",
"/  c #000000",
"(  c #000000",
")  c #000000",
"_  c #000000",
"`  c #000000",
"'  c #000000",
"]  c #000000",
"[  c #000000",
"{  c #000000",
"}  c #000000",
"|  c #000000",
" . c #000000",
".. c #000000",
"X. c #000000",
"o. c #000000",
"O. c #000000",
"+. c #000000",
"@. c #000000",
"#. c #000000",
"$. c #000000",
"%. c #000000",
"&. c #000000",
"*. c #000000",
"=. c #000000",
"-. c #000000",
";. c #000000",
":. c #000000",
">. c #000000",
",. c #000000",
"<. c #000000",
"1. c #000000",
"2. c #000000",
"3. c #000000",
"4. c #000000",
"5. c #000000",
"6. c #000000",
"7. c #000000",
"8. c #000000",
"9. c #000000",
"0. c #000000",
"q. c #000000",
"w. c #000000",
"e. c #000000",
"r. c #000000",
"t. c #000000",
"y. c #000000",
"u. c #000000",
"i. c #000000",
"p. c #000000",
"a. c #000000",
"s. c #000000",
"d. c #000000",
"f. c #000000",
"g. c #000000",
"h. c #000000",
"j. c #000000",
"k. c #000000",
"l. c #000000",
"z. c #000000",
"x. c #000000",
"c. c #000000",
"v. c #000000",
"b. c #000000",
"n. c #000000",
"m. c #000000",
"M. c #000000",
"N. c #000000",
"B. c #000000",
"V. c #000000",
"C. c #000000",
"Z. c #000000",
"A. c #000000",
"S. c #000000",
/* pixels */
"                                                                                                                                ",
"                                                                                                                                ",
"                                                                                                                                ",
"                          &.                @.=.                +.&.              @.                  t.                        ",
"                          +.<.i.p.        +.I +.<.            +.I +.y.          +.+.p.              i.i.                        ",
"                          +.+.<.p.y.p.  @.I I I =.i.        $.I I I =.i.      +.I @.p.            i.p.i.                        ",
"                          +.I =.p.p.i.i.I I I I +.i.y.  @.I I I I I +.i.i.  @.I I @.p.p.        i.p.p.p.                        ",
"                          +.I I <.p.i.i.I I I I I @.i.i.I I I I I I I @.i.i.I I I =.p.p.      p.p.p.p.                          ",
"                          @.I I +.<.i.i.I I I I I I <.i.I I I I I I I I <.i.I I I =.i.i.p.  p.p.p.p.p.                          ",
"                          @.I I I @.i.i.I I I I I I @.i.I I I I I I I I @.i.I I I >.p.p.p.p.p.p.p.p.p.                          ",
"                            I I I I -.i.I I I I I I I &.I I I I _ _ I I I >.I I I ,.p.p.p.p.p.p.p.p.p.                          ",
"                            I I I I +.<.I I I I I I I +.I I I I [ [ I I I +.I I I p.p.p.p.p.p.p.p.p.p.                          ",
"                            I I I I I @.I I I I I I I I I I I I [ [ I I I I I I I p.p.p.p.p.p.p.p.p.p.                          ",
"                            +.I I I I I I I I I I I I I I I I I [ [ I I I I I I +.p.t.t.p.p.p.p.p.p.p.                          ",
"                            +.I I I I I I I I I I I I I I I I I [ [ I I I I I I @.t.t.t.p.p.p.p.p.p.                            ",
"                            +.I I I I I I I I I I I I I I I I I [ [ I I I I I I @.1.t.t.p.p.p.p.p.p.                            ",
"                            +.I I I I I I 5 # X > m P I I I I I _ _ I I I P m > + # 7 p.p.p.p.p.p.p.                            ",
"              ` [           @.I I I I I I 0 & # # # ; K I I I I I I I I K - # # # & 8 i.p.p.p.p.p.p.                            ",
"              [ [           @.I I I I I I l u & # # # ; T I I I I I I T - # # # & u d.i.p.p.p.p.p.p.                            ",
"              ` [           @.I I I I I I T 0 i 5 & # # m I I I I I I m # # & 5 i 0 0.p.p.p.p.p.p.p.                            ",
"        ` ` [ ` [           @.I I I I I I I G 0 i i i i 0 I I I I I I 0 i i i i 0 O.i.i.1.1.p.p.p.<.        @.*.i.              ",
"        ` [ [ [ [           @.I I I _ _ I I I T l q i i i I I I I I I u i i 0 j #.i.p.i.+.@.p.p.p.p.      $.I =.i.              ",
"            [ [ [ [           I I I ` [ I I I I I I I I I I I I I I I I I I I I @.p.p.p.I I p.p.p.p.      +.I =.i.              ",
"                [ [           I I I ` ` I I I I I I I I I I I I I I I I I I I I I p.p.p.I I p.p.p.p.      +.I @.p.i.            ",
"              U Y U           I I I ` [ I I I I I I I I I I I I I I I I I I I I I >.y.p.+.@.p.p.i.y.      @.I @.p.p.            ",
"        I I I I I I I         I I I _ _ I I I I I I I I I I I I I I I I I I I I I @.i.p.p.<.p.p.i.i.        I +.p.i.            ",
"      I I Y Q ] o.R I I Q   @.I I I I I I I I I I I I I I I I I I I I I I I I I I +.p.i.p.p.p.p.i.y.      @.I I i.p.p.p.p.      ",
"      Q ] [ [ [ [ [ o.o.[ [ / I I I I I I I I I I I I I I I I I I I I I I I I I I I =.i.p.p.p.p.y.i.    +.I I I @.i.p.p.p.      ",
"      [ [ [ ' [ [ [ [ [ [ [ / I I I I I I I I I I I I I I I I I I I I I I I I I I I +.y.p.p.p.p.y.i.  @.I I I I I I I I I       ",
"      ' o.o.o.    Q [ [ [ [ / I I I I k B T I I I I I ( f.R I I I I I ! z.W I I I I  .k p.p.p.p.y.p.@.I I I I I I I I I I       ",
"                      [ [ [ T I I I I ( $ 8 x.~ I I U t i e W I I R x.p i x.I I  .z & < <.p.p.p.p.i.I I I I I @.                ",
"                        ] [ $.I I I I I 2 # 4 p s.G s.6 4 u p ) { e i u & x  .x u & $ N $.p.p.p.p.i.+.I I I @.                  ",
"                          ] +.I I I I I | & # & u i u $ # & u i i i 4 # # i i u # # $ T I +.y.p.p.p.+.I I +.                    ",
"                            I I I I I I I 3 # # $ 6 = # # # # 6 7 % # # # i 7 # # # : I I I @.<.p.p.@.I @.                      ",
"                            I I I I I I I | 4 # # # # # # # # = & # # # # 6 # # # # n I I I I @.p.p.@.@.                        ",
"                            I I I I I I I I x $ # 4 5 # # # & u 7 # # # 4 6 # # # # K I I I I I +.<.>.                          ",
"                          @.I I I I I I I I  .6 4 s.f.5 # $ u f.z & # 4 i i 4 # # * I I I I I I I I =.                          ",
"                          +.I I I I I I I I I x t K T e 4 6 r T | 9 4 i V | x 4 # h I I I I I I I I I                           ",
"                          +.I I I I I I I I I  .( I I W 0 p W I I x i V I I I  .2 { I I I I I I I I I                           ",
"                          I I I I I I I I I I I I I I I ) ) I I I  .C I I I I I I I I I I I I I I I I                           ",
"                          I I I +.I I I I I I +.I I I I I I I I I =.i.I I I I I I I I I I I I I I I I @.                        ",
"                        @.I I @.@.I I I I I I <.I I I I I I I I +.i.i.I I I I I I I I I I I I I I I I +.                        ",
"                        +.I +.<.+.I I I I I -.i.I I I I I I I +.p.p.p.I I I I I I I I I I @.I I I I I +.                        ",
"                        +.I <.>.I I I I I @.i.i.I I I I I I I &.p.p.Z L I I I I I I I I @.p.I I I I I +.                        ",
"                        I >.i.&.I I I I I <.i.b D I I I I I +.i.p.6.+ . I I I I I I I +.<.i.I I I I I I                         ",
"                      +.&.i.i.+.I I I I -.0.k.$ # D I I I I @.i.1., # # J I I I I I +.<.i.i.I I I I I I                         ",
"                      &.y.c.y X.I I I +.7.r i & # # F I I I &.i.M # # # - +.I I I +.-.i.i.y.I I I I I I @.                      ",
"                        d i i i  .I +.a.s i n.9 # # # D I I <.H $ # # # # B I I I &.i.y...k.g.^ I I I I +.                      ",
"                      d i i i i i X.X.i i i Z.Z.$ # # # F I %.@ # # # # # o P I &.9.v.t i N.N.i r  .+.I $.                      ",
"                      i i i i i i i i i i i S.S.g # # # # F v # # # # # # # c 5.h.a i a C.S.S.C.a i p A 8.                      ",
"                    n.i i i i i i i i i i i S.S.S.s # # # # # # # # # # # # 4 i i i d Z.S.S.S.S.Z.d i i Z.                      ",
"                    b.i i i i i i i i i i i Z.S.S.S.M.& # # # # # # # $ & M.b.i i f S.S.S.S.S.S.S.Z.d i B.S.                    ",
"                    d i i i i i i i i i i i N.S.S.S.S.S.m.9 = $ $ = 7 M.S.S.S.M.M.S.S.S.S.S.S.S.S.S.S.b.n.S.                    ",
"                    i i i i i i i i i i i i i S.S.S.S.S.S.S.S.S.A.S.S.S.S.S.S.S.S.S.S.S.S.S.S.S.S.S.S.S.B.S.                    ",
"                    i i i i i i i & & i i i i n.S.S.S.S.S.S.S.S.S.S.S.S.S.S.S.S.S.S.S.S.S.f f S.S.S.S.S.S.S.                    ",
"                    i i i i i i i # $ i i i i i n.S.S.S.S.S.S.S.S.S.S.S.S.S.S.S.S.S.S.S.S.i i S.S.S.S.S.S.S.                    ",
"                    i i i i i i i # # i i i i i i a N.Z.S.S.S.S.S.S.S.S.S.S.S.S.S.S.S.S.S.i i S.S.S.S.S.S.S.                    ",
"                    i i i i i i i # # i i i i i i i i i i i i i i i i i i i i i i i i i i $ # i i i i i i i                     ",
"                    i i i i i i i # # i i i i i i i i i i i i i i i i i i i i i i i i i i # # i i i i i i i                     ",
"                    i i i i i i i # # i i i i i i i i i i i i i i i i i i i i i i i i i i # # i i i i i i i                     ",
"                    i i i i i i i $ $ i i i i i i i i i i i i i i i i i i i i i i i i i i # # i i i i i i i                     ",
"                                                                                                                                ",
"                                                                                                                                ",
"                                                                                                                                "
};
