/* XPM */
static char *blackhole__2_1687094449[] = {
/* columns rows colors chars-per-pixel */
"64 64 139 2 ",
"   c None",
".  c #000001",
"X  c #080702",
"o  c #0B0A04",
"O  c #04050C",
"+  c #161306",
"@  c #151409",
"#  c #1C1A0A",
"$  c #060711",
"%  c #070913",
"&  c #080A14",
"*  c #070919",
"=  c #0A0C1B",
"-  c #0B141A",
";  c #221E09",
":  c #23210F",
">  c #0B0E24",
",  c #0C0F28",
"<  c #0F1123",
"1  c #0D112C",
"2  c #101326",
"3  c #12152C",
"4  c #0F1332",
"5  c #111535",
"6  c #151933",
"7  c #11163C",
"8  c #17193B",
"9  c #191D3B",
"0  c #413912",
"q  c #403D1B",
"w  c #43401C",
"e  c #7F7023",
"r  c #7E7835",
"t  c #141944",
"y  c #1A1E41",
"u  c #161D4C",
"i  c #171E51",
"p  c #181F53",
"a  c #1D2244",
"s  c #1E224A",
"d  c #1A2156",
"f  c #1A225B",
"g  c #21264D",
"h  c #212556",
"j  c #232953",
"k  c #23265B",
"l  c #262C5B",
"z  c #282F5F",
"x  c #1D2663",
"c  c #1E2768",
"v  c #1F286A",
"b  c #262A63",
"n  c #282D64",
"m  c #20296D",
"M  c #292E6B",
"N  c #2A3264",
"B  c #2D356B",
"V  c #222C74",
"C  c #2B2F70",
"Z  c #232E7A",
"A  c #2D3372",
"S  c #2F3870",
"D  c #25307F",
"F  c #2F357B",
"G  c #313974",
"H  c #343D7C",
"J  c #827224",
"K  c #837D37",
"L  c #9D8B2D",
"P  c #998B32",
"I  c #9A903D",
"U  c #A08D2D",
"Y  c #A5912E",
"T  c #BEA735",
"R  c #D0B73A",
"E  c #9C9542",
"W  c #A39B45",
"Q  c #D1BB41",
"!  c #C0B751",
"~  c #D1C759",
"^  c #E5C940",
"/  c #E9CD42",
"(  c #E5CF4B",
")  c #FADC46",
"_  c #F8DD4B",
"`  c #FFE047",
"'  c #FFE24B",
"]  c #FFE653",
"[  c #FFE856",
"{  c #FFEA5B",
"}  c #E6DB61",
"|  c #E9DE63",
" . c #FFEE62",
".. c #F8EC69",
"X. c #FFF36C",
"o. c #263182",
"O. c #29358C",
"+. c #313680",
"@. c #343B83",
"#. c #363C8D",
"$. c #2A3791",
"%. c #2B3894",
"&. c #373E90",
"*. c #393F95",
"=. c #374081",
"-. c #394286",
";. c #3A448A",
":. c #3D4693",
">. c #3E4994",
",. c #3D449A",
"<. c #3E45A2",
"1. c #404B97",
"2. c #424D9C",
"3. c #4047A5",
"4. c #444EA2",
"5. c #4047A9",
"6. c #4148AB",
"7. c #4652A5",
"8. c #4752AC",
"9. c #4955AC",
"0. c #454CB3",
"q. c #474FBA",
"w. c #4955B1",
"e. c #4C59B4",
"r. c #4A52BE",
"t. c #4F5CBB",
"y. c #515FBE",
"u. c #4C54C6",
"i. c #4F5AC4",
"p. c #4E57C8",
"a. c #4F59C9",
"s. c #515EC2",
"d. c #515CCA",
"f. c #5361C4",
"g. c #5766CE",
"h. c #4C8FCA",
"j. c #559FE0",
"k. c #56A1E1",
"l. c #5DADF2",
/* pixels */
"      . . . .                                   . . . . . . .                                                                   ",
"      . . X . .                               . . O & O . . . . . . .                                                           ",
"    . X Q / + . .                             . < f.g.g.g.9.:.B 9 O . . . .                                       . . .         ",
". . X K X.{ Y o . .                           . 2 g.g.g.g.g.g.g.g.g.:.s O . . .                                 . . . . .       ",
". . ~ X.X.X.' ^ + .                           . . O < 3 9 l H 7.g.g.g.g.i.M % . . .                             . & k.h.. .     ",
". o | X.X.X.] ) ; .                             . . . . . . . . O s ;.g.g.g.i.M O . .                           . - l.k.. .     ",
". . + W X. .T ; . .                               . . . . . . . . . . & N y.g.g.0.8 . .                         . . - & . .     ",
"  . . o ( ) ; . .                     . . . . . . . . . . . . . . . . . . O N g.g.a.A . . .                       . . . .       ",
"    . . + ; . .                 . . . . . = a z G ;.;.1.;.H B s 2 . . . . . . - 4.g.d.,.$ . .                                   ",
"      . . . .               . . . O a -.t.g.g.g.g.g.g.g.g.g.g.g.g.f.;.l % . . . . S g.d.5.* . .           . .                   ",
"                        . . . 2 =.f.g.g.g.g.g.g.g.g.g.g.g.g.g.g.g.g.g.g.g.;.9 . . . l g.d.0.& . .       . . . .                 ",
"                    . . . 2 >.g.g.g.g.g.g.g.g.g.g.g.g.g.g.g.g.g.g.g.g.g.g.g.g.7.9 . s g.g.d.<.O .     . . 3.<.O .               ",
"                  . . O H g.g.g.9.z & z g.g.g.g.g.g.g.f.2.H N z z B H 2.f.g.g.g.g.9.g.g.g.g.p.&.. .   . O s.u.k . .             ",
"                O . 9 y.g.g.w.a . . . 9 g.g.g.g.y.G 3 . . . . . . . . . . 3 G t.g.g.g.g.g.g.g.p.b . . . . G u.q.O .             ",
"                y.1.g.g.f.N . . . . g f.g.g.e.j . . . % 4 u f x x f u 1 O . . . j e.g.g.g.g.g.d.u.3 . . . % i.u.j .             ",
"              g.g.g.g.7.= . . . = >.g.g.g.B . . O 8 D %.%.%.%.%.$.%.%.%.%.V 5 O . O B f.g.g.g.g.u.<.. . . . H p.5.. .           ",
"          . & g.g.g.=.. . . . 6 y.g.g.e.3 . . u O.%.%.%.%.O.x f f x O.%.%.%.%.Z t . . 3 e.g.g.g.d.p.d . . . 3 a.p.3 .           ",
"        . . ;.g.g.B . . . . g g.g.g.7.& . > o.%.%.%.%.%.%.O . . . . O %.%.%.%.%.O.c = . & 7.g.g.g.p.0.. . . . 8.u.b .           ",
"      . . N g.g.B . . . . l g.g.g.7.O . 7 %.%.$.f Z %.%.%.f t u u t f %.%.%.%.%.%.%.Z 4 . O 7.g.g.d.p.g . . . S u.<.. .         ",
"    . . a g.g.H . . . . l g.g.g.e.& . u %.%.Z = . 5 %.%.%.%.%.%.%.%.%.%.%.%.%.%.%.%.$.D 8 . % e.g.g.u.3.. . . 9 u.u.$ .         ",
"    . $ t.g.7.. . . . 9 g.g.g.g.3 . 7 %.%.c . . > O.%.%.%.%.O.m v Z %.%.%.%.%.%.%.O.Z O.Z 4 . 3 g.g.d.u.2 . . O i.u.5 .         ",
"  . . ;.g.y.& . . . = f.g.g.g.B . > %.%.c . . d %.%.%.%.%.%.O . . . . , x %.%.%.%.4 . x O.Z * . N g.d.u.B . . . 0.p.h .         ",
"  . 3 g.g.g . . . . 2.g.g.g.e.. . o.%.Z O . x %.%.%.%.%.%.%.f 7 5 1 O . . = V %.%.x . . Z Z v . O e.g.u.4.. . . 1.u.C .         ",
"  . = y.;.. . . . N g.g.g.g.j . u %.%.* . u %.%.V O.%.%.%.%.%.%.%.%.%.v > . . f %.%.u . * O.Z 7 . j g.p.d.$ . . @.u.+.. .       ",
"  . . . . .   . & f.g.g.g.t.. O O.%.p . > %.%.d . 7 %.%.%.%.%.%.%.%.%.%.%.f O . f %.%., . u Z V O . t.a.d.9 . . H u.&.. .       ",
"    . . .   . . G g.g.g.g.S . t %.O.O . Z %.V . . V %.%.%.%.%.%.%.%.%.%.%.%.V . . V %.Z . O o.Z 5 . G d.d.z . . S u.&.. .       ",
"            . & g.g.g.g.g.6 . Z %.f . 5 %.%.* . d %.%.%.%.%.%.$.%.%.%.%.%.%.%.f . * %.%.4 . d Z x . 6 g.a.H . . F u.#.. .       ",
"          . . B g.g.g.g.f.. O %.%.> . V %.x . > %.%.%.%.%.$.%.x t t v %.%.%.%.%.> . c %.m . > o.Z O . s.d.>.. . H u.@.. .       ",
"          . . t.g.g.g.g.4.. 4 %.%.. O %.%.1 . x %.%.%.%.%.V * . . . . 5 %.%.%.%.Z , D %.%.O . o.Z , . 2.d.2.. . :.u.M .         ",
"          . 9 g.g.g.g.g.H . s %.V . 1 %.%.p 4 %.%.%.%.%.V O . q P U # . c %.%.%.%.%.%.%.%.1 . m Z 7 . H g.9.. . 6.u.k .         ",
"        . . G g.g.g.g.g.B . f %.x . t %.%.%.%.%.%.%.%.%.% . r X. .) L . t %.%.%.%.%.%.%.%.5 . f Z u . B g.f.= 2 d.u.8 .         ",
"        . . e.g.g.g.g.g.z . x %.d . u %.%.%.%.%.%.%.%.x . q X.X. .` L . t %.%.%.%.x * o.%.u . p Z i . z g.g.g.g.a.u.O .         ",
"        . & g.g.g.g.g.g.z . x %.V * V %.%.%.%.%.%.%.%.t . W X.X.[ ` 0 . x %.%.%.%.5 . V %.u . p Z i . z g.g.g.g.p.6.. .         ",
"        . 9 g.g.< = f.g.N . f %.%.%.%.%.%.%.%.%.%.%.%.t . E X. .` e . = $.%.%.%.%.> . o.%.t . x Z u . B g.g.g.g.p.C . .         ",
"        . z g.e.. . 9.g.=.. u $.%.%.%.%.%.%.%.%.%.%.%.v . # I P 0 . . V %.%.%.%.$.O . %.%., . v Z 7 . H g.g.g.d.u.5 .           ",
"        . G g.>.. . 4.g.2.. 4 $.%.%.%.%.$.o., Z %.%.%.%.5 . . . . * Z %.%.%.%.%.c . 4 %.%.O . o.Z , . 2.g.g.g.u.0.. .           ",
"      . . ;.g.H . . >.g.f.. % $.%.%.%.%.%.c . > %.%.%.%.%.c u t c $.%.%.%.%.%.%.= . x %.V . , Z Z O . f.g.g.d.u.b . .           ",
"      . . >.g.G . . =.g.g.3 . D %.%.%.%.%.%.= . f %.%.%.%.%.%.%.%.%.%.%.%.%.$.f . > %.%.4 . f Z x . 6 g.g.g.u.u.% .             ",
"      . . 1.g.S . . z g.g.G . t %.%.%.%.%.%.V . . V %.%.%.%.%.%.%.%.%.%.%.%.m . . Z $.D . O O.Z 4 . G g.g.g.u.C . .   . . .     ",
"      . . 1.g.G . . a g.g.y.. O O.%.%.%.%.%.%.f . t %.%.%.%.%.%.%.%.%.%.%.f . . f %.%., . i Z V O . t.g.g.d.q.% .   . . . . .   ",
"      . . -.g.=.. . % g.g.g.j . u %.%.Z % f %.%.V O.%.%.%.%.%.%.%.$.%.x > . . f %.%.i . = O.Z 7 . j g.g.g.u.h . . . . @.0.= .   ",
"        . G g.2.. . . 9.g.g.e.. . o.%.O.. . x %.%.%.%.%.%.t , 5 5 1 O . . = V %.%.f . O Z Z c . O e.g.g.u.*.. . . . g a.u.3 .   ",
"        . z g.e.. . . S g.g.g.B . > %.%.c . . i %.%.%.%.%.* . . . . . 4 x %.%.%.u . . c O.V * . B g.g.d.q.= . . . = y.p.@.. .   ",
"        . 6 g.g.O . . 3 g.g.g.g.3 . 7 %.%.c . . , o.%.%.%.%.Z V V D %.%.%.%.%.i . O c O.Z 4 . 3 g.g.d.u.5 . . . . 2.a.q.% .     ",
"        . % g.g.9 . . . 9.g.g.g.e.& . u %.%.Z * . . 5 V %.%.%.%.%.%.%.%.%.%.%.x , Z O.D 5 . % t.g.g.u.u . . . . H g.u.8 . .     ",
"        . . 9.g.B . . . j g.g.g.g.7.O . t %.%.O.u O . . O 1 t u u t f %.%.%.%.%.%.%.Z 4 . O 7.g.g.u.h . . . . B g.u.b . .       ",
"          . B g.e.. . . O t.g.g.g.g.7.& . > o.%.%.O.f < . . . . . . O %.%.%.%.%.O.v = . & 7.g.g.u.s . . . . A g.u.+.. .         ",
"          . 6 g.g.2 . . . j g.g.g.g.g.e.3 . . u O.%.%.$.$.Z x f f x O.%.%.%.%.Z 5 . . 5 t.g.g.0.3 . . . O -.g.p.@.. .           ",
"          . . 9.g.H . . . . 7.g.g.g.g.g.g.B O . . t V %.$.%.%.%.%.%.%.%.%.m 5 . . O N g.g.d.&.& . . . 2 8.g.p.F . .             ",
"            . z g.f.% . . . 3 g.g.g.g.g.g.g.e.j O . . O 4 u f x x f t 1 O . . O j e.g.g.r.s . . . . N f.g.p.k . .               ",
"            . O y.g.S . . . . B g.g.g.g.g.g.g.g.y.G 6 . . . . . . . . . . 6 G y.g.g.g.d.6 . . . g e.g.g.0.6 . .                 ",
"            . . N g.f.O .   . . 1.g.g.g.g.f.e.g.g.g.g.f.2.H B N z B =.4.f.g.g.g.g.g.g.g.z = z e.g.g.d.C O . .                   ",
"              . O 7.9.. .     . O 9.g.g.g.a . 8 7.g.g.g.g.g.g.g.g.g.g.g.g.g.g.g.g.g.g.g.g.g.g.g.d.&.< . . .                     ",
"                . . . .       . . = t.g.a.l . . . 9 ;.g.g.g.g.g.g.g.g.g.g.g.g.g.g.g.g.g.g.g.f.F > . . .                         ",
"                  . .           . . = 9.g.i.M . . . . & j ;.f.g.g.g.g.g.g.g.g.g.g.g.g.t.@.y O . . .               . . . .       ",
"                                  . . O 7.g.g.,.= . . . . . . < a B H ;.;.;.-.G z y & . . . . .                 . . ; @ . .     ",
"      . . . .                       . . . S g.g.i.M O . . . . . . . . . . . . . . . . . .                     . . : _ ^ o . .   ",
"    . . O & . .                         . . 9 e.g.g.t.n % . . . . . . . . . .                               . . : ! X.{ Y + . . ",
"    . . 0.u.* .                           . . O n f.g.g.g.;.a O . . . . . . . .                             . : ..X.X.X.` / X . ",
"    . . <.0.O .                             . . . = B y.g.g.g.g.7.H l 9 3 < O . .                           . @ } X.X.X.` R X . ",
"      . . . . .                                 . . . O N g.g.g.g.g.g.g.g.a.u.> .                           . . o W X.[ J X .   ",
"        . . .                                       . . . f.g.f.=.:.9.g.g.a.r.> .                             . . + / R . .     ",
"                                                              3 . . . . . & O . .                               . . o . .       ",
"                                                                  . . . . . . .                                   . . .         "
};
