/* XPM */
static char *arcade_game1687015039[] = {
/* columns rows colors chars-per-pixel */
"64 64 170 2 ",
"   c None",
".  c #000000",
"X  c #0D0506",
"o  c #070809",
"O  c #0B0B0C",
"+  c #0C0A07",
"@  c #110E09",
"#  c #16130E",
"$  c #19160E",
"%  c #1B0F10",
"&  c #131516",
"*  c #161A1C",
"=  c #1A1D1E",
"-  c #131719",
";  c #280D0F",
":  c #2E0F12",
">  c #241213",
",  c #2B1315",
"<  c #241F15",
"1  c #2F1A1C",
"2  c #321719",
"3  c #341A1C",
"4  c #3E1C1F",
"5  c #321113",
"6  c #262015",
"7  c #26221A",
"8  c #1A1F22",
"9  c #361F21",
"0  c #1D2122",
"q  c #222627",
"w  c #272B2C",
"e  c #3F2325",
"r  c #2C3334",
"t  c #2C363A",
"y  c #333939",
"u  c #421E21",
"i  c #551C21",
"p  c #462729",
"a  c #58282C",
"s  c #5A3235",
"d  c #463B27",
"f  c #672228",
"g  c #602126",
"h  c #682F33",
"j  c #693A3D",
"k  c #78363B",
"l  c #4D412C",
"z  c #4F4736",
"x  c #6B5A3C",
"c  c #3A3F40",
"v  c #3E4344",
"b  c #3C4648",
"n  c #3F494B",
"m  c #414C4E",
"M  c #435054",
"N  c #4D5354",
"B  c #4A5659",
"V  c #555C5D",
"C  c #535657",
"Z  c #7D464A",
"A  c #4E6066",
"S  c #5C6465",
"D  c #55686F",
"F  c #5B6A6D",
"G  c #556468",
"H  c #5C6D71",
"J  c #576971",
"K  c #5D727A",
"L  c #646C6E",
"P  c #6B7C7E",
"I  c #66757A",
"U  c #727C7E",
"Y  c #844A4E",
"T  c #9D585D",
"R  c #A34C53",
"E  c #AB4D54",
"W  c #BC545D",
"Q  c #8A7856",
"!  c #907A51",
"~  c #87734C",
"^  c #A45C61",
"/  c #AE6166",
"(  c #BF6B71",
")  c #CB434E",
"_  c #CF4A54",
"`  c #DC4955",
"'  c #DD4F5A",
"]  c #D14551",
"[  c #DD515C",
"{  c #C55861",
"}  c #CC5B65",
"|  c #D35F68",
" . c #D45C66",
".. c #DF636E",
"X. c #D3656D",
"o. c #CD6E75",
"O. c #DF6670",
"+. c #CE747A",
"@. c #C87177",
"#. c #D6797F",
"$. c #D3767C",
"%. c #E06C75",
"&. c #E06F78",
"*. c #E1737C",
"=. c #E1787F",
"-. c #9F875A",
";. c #9B8A6A",
":. c #AD9362",
">. c #AD996F",
",. c #AF9C78",
"<. c #AF9C76",
"1. c #C1A46D",
"2. c #CFB179",
"3. c #6C7D81",
"4. c #DE7D83",
"5. c #E27F86",
"6. c #6E858F",
"7. c #748284",
"8. c #778A8E",
"9. c #7E898B",
"0. c #7C8789",
"q. c #6E8690",
"w. c #738C96",
"e. c #7A8E92",
"r. c #818C8E",
"t. c #859193",
"y. c #8A9698",
"u. c #8F9C9E",
"i. c #87989B",
"p. c #989B9E",
"a. c #939FA1",
"s. c #98A6A9",
"d. c #91AAAE",
"f. c #9CAAAC",
"g. c #95A2A4",
"h. c #94ADB1",
"j. c #99B3B7",
"k. c #9CB6BA",
"l. c #8EA6A9",
"z. c #ABBABC",
"x. c #A7B7B9",
"c. c #C9B48A",
"v. c #D9C295",
"b. c #E4C384",
"n. c #F1CD89",
"m. c #F2D08F",
"M. c #E0C693",
"N. c #EDD29D",
"B. c #F3D498",
"V. c #F3D7A0",
"C. c #F4DAA7",
"Z. c #A6BDC1",
"A. c #B0BFC2",
"S. c #A9C5CA",
"D. c #B2C1C4",
"F. c #AFCCD1",
"G. c #BDCED0",
"H. c #B4D2D7",
"J. c #B6D3D8",
"K. c #BBD6DA",
"L. c #BED9DD",
"P. c #D6CED2",
"I. c #C2D3D6",
"U. c #C5D7DA",
"Y. c #C2DADE",
"T. c #CADBDE",
"R. c #CBDEE2",
"E. c #CDE1E3",
"W. c #D2E4E7",
"Q. c #D2E4E8",
/* pixels */
"                                                            . . . .                                                             ",
"                                                          . . o o . .                                                           ",
"                                                        . o U T.T.U o .                                                         ",
"        . . .                                         . O f.W.W.W.W.s.o .                                         . . .         ",
"      . . . . .                                     . . g.W.W.W.W.W.W.u.. .                                     . . . . .       ",
"    . . Q b.@ .                                   . . V W.W.W.W.W.W.W.W.B . .                                   . O M.~ . .     ",
"    . . ,.m.7 .                                   . * T.W.W.W.W.W.W.W.W.U.- .                                   . 7 V.:.. .     ",
"    . . ,.m.< .                                 . . 0.W.W.W.W.W.W.W.W.W.W.3.. .                                 . 7 V.:.. .     ",
"    . . <.n.6 .                                 . - E.W.Q.Q.Q.z.z.W.W.W.Q.K.& .                                 . 7 B.:.. .     ",
"      . x 1.o .                                 . L W.W.W.u.= . . = a.W.Q.E.A .                                 . X 1.x .       ",
"      . . . . .                               . . D.W.W.U . . 0 0 . . U Q.Q.j.. .                               . . . . .       ",
"        . .                                   . q Q.W.t.. o A w.w.G O . t.Q.K.* .                                   . .         ",
"                                              . C W.x.. . J w.w.w.w.J o o x.L.M .                                               ",
"                                            . . t.W.w . M w.w.w.w.w.w.M . w L.7.. .                                             ",
"                                            . . z.7.. 0 w.w.w.w.w.w.w.w.8 . 3.d.. .                                             ",
"                                            . . G.& . I w.K t = * t K w.K . & Z.. .                                             ",
"      . . . .                               . . 0.. t 6.r . . . . . . r q.t . P . .                               . . . .       ",
"      . + < . .                             . O 0 . D - . = r.I.I.r.= . - J . 0 o .                             . . 7 + .       ",
"    . . ;.n.$ .                             . . . 8 * . v U.W.W.W.W.U.v . 8 * . . .                             . # N.-.. .     ",
"    . . ,.m.6 .                             . . . . . v E.Q.W.W.W.W.W.E.c . o . . .                             . 7 V.:.. .     ",
"    . . ,.m.6 .                             . . . . 0 U.W.W.W.W.W.W.W.W.U.0 . . . .                             . 7 N.:.. .     ",
"    . . >.n.< .                             . . . . g.W.W.W.W.W.W.W.W.W.W.s.. . . .                             . 6 B.:.. .     ",
"      . l ! . .                             . . . v W.W.W.W.W.W.W.W.W.W.Q.Q.y . . .                             . . ! d .       ",
"      . . . .                               . . . g.W.W.W.W.W.W.W.W.W.W.Q.Q.i.. . .                               . . . .       ",
"          .                                 . . * E.W.W.W.W.W.W.W.W.W.W.W.W.Y.& . .                                 .           ",
"                                            . . C W.W.W.W.W.W.W.W.W.W.W.W.W.Y.m . .                                             ",
"                                            . . r.W.W.W.W.W.W.W.W.W.W.W.Q.Q.Y.3.. .                                             ",
"                                            . . z.W.W.W.W.W.W.W.W.W.W.W.W.E.R.d.. .                                             ",
"                                . . .       . . G.W.W.W.W.W.W.W.W.W.W.W.W.W.Y.Z.. .       . . .                                 ",
"                                . o .       . . R.W.W.W.W.W.W.W.W.W.W.W.W.W.R.F.. .       . o .                                 ",
"      . . . .                 . o F . .   . . O W.W.W.W.W.W.W.W.W.W.W.W.Q.Q.L.H.O . .   . . I + .                 . . . .       ",
"    . . 9 j . .             . . P 8.. . . . . O W.W.W.W.W.W.W.W.W.W.W.W.W.Q.L.H.O . . . . . y.0.. .             . . j 2 . .     ",
"    . > 4.4.k . .         . . N J.8.. . . 2 X O W.W.W.W.W.W.W.W.W.W.W.W.W.W.Y.H.O X 5 . . . y.W.N . .         . . Z 5.X.> .     ",
"  . . ^ 4.5...; .       . . r R.J.8.. . : | @ O W.W.W.W.W.W.W.W.W.W.W.W.W.W.Y.H.@ X ] 2 . . y.Q.R.r . .       . > 4.5.%.R . .   ",
"  . . ( 5.4...4 .     . . q I.W.H.8.. : _ O.+ O W.W.W.W.W.W.W.W.W.W.W.W.W.W.R.H.O X `  .2 . y.Q.W.I.q . .     . p 5.5.*.W . .   ",
"  . . } 5.&...4 . . . . r I.W.W.J.8.. f ' ..a V W.W.W.W.W.W.W.W.W.W.W.Q.W.Q.L.H.@ X ` ..h . y.Q.W.W.I.r . . . . e 4.5.O.W . .   ",
"  . . ( c.O...u . . . L E.W.W.W.J.8.. f [ ....W.W.W.W.W.W.W.W.W.W.W.W.W.W.W.Y.H.O X ` ..h . y.W.W.W.W.R.L . . . e 5.5.%.W . .   ",
"  . . ( 5.=...i . C A.W.W.W.W.W.J.8.. f [ .. .U.W.W.W.W.W.W.W.W.W.W.W.W.W.W.R.H.O X ` ..h . y.W.W.W.W.W.W.z.C . e 5.5.%.W . .   ",
"  . . ( 5.=...4 . D.W.W.W.W.W.W.J.8.. f [ .., 0 W.W.W.W.W.W.W.W.W.W.W.W.W.W.L.H.O X ` ..h . y.W.W.W.W.W.W.W.D.. e 5.5.%.W . .   ",
"    9 4.5.=...4 . D.W.W.W.W.W.W.J.8.. f ' ..X O W.W.W.W.W.W.W.W.W.W.W.W.W.W.K.H.+ X ` ..h . y.W.W.W.W.W.W.W.D.. p 5.5.%.W . .   ",
"    4.4.4.5.| u . D.W.W.W.W.W.W.J.8.. f ' ' X O W.W.W.W.W.W.W.W.W.Q.W.W.E.J.H.H.O X ` ..h . y.W.W.W.W.W.Q.Q.D.. e 4.5.%.W . .   ",
"    ( 4.5.4...u . D.W.W.W.W.W.W.J.8.. f ` ) X o x.W.W.W.W.W.W.W.W.W.E.L.H.H.H.l.o . ) ' h . y.W.W.W.W.W.Q.Q.D.. e 5.5.%.W . .   ",
"  . . 4.5.&...9 . D.W.W.W.W.W.W.J.8.. f ) ; . . . S U.Q.W.W.W.W.E.E.J.J.H.S.B . . . ; ) g . y.W.W.W.W.W.Q.Q.A.. e 5.5.%.W . .   ",
"  . . @.5.5...u . D.W.W.W.W.W.W.J.8.. i ; . . . . . * u.W.W.W.W.Q.Y.H.H.e.* . . . . . ; i . y.W.W.W.W.W.W.W.A.. e 5.5.%.W . .   ",
"  . . ( 5.&...u . D.Q.W.W.W.W.W.J.8.. . . .   . . p . . N W.W.W.Q.Y.H.n . . p . .   . . . . y.W.W.W.W.W.Q.Q.I.X i 5.5.%.W . .   ",
"  . . ( 5.5.| u . D.Q.Q.W.W.W.W.J.8.. . .     . . +.^ X . W.W.Q.W.Y.H.o + R } . .     . . . y.W.W.W.W.W.Q.Q.E.p.X.5.c.%.W . .   ",
"  . . ( 5.5.%.4 . D.Q.E.W.W.W.W.J.8.. .       . . +.c.% . Q.W.W.W.Y.H.. % #. .. .       . . f.W.W.W.Q.W.Q.Q.Q.P.5.5.5.O.W . .   ",
"  . . X.5.*...4 . x.L.R.R.W.Q.Q.J.8.. .       . X O.5.% . Q.W.W.W.Y.H.. % O.} . .         s.W.W.W.R.Y.K.K.J.J.C T 5.5...W . .   ",
"  . . / 5.=...4 . j.H.H.H.J.Y.E.H.8.. .       . . +.5.% . Q.Q.W.Q.L.J.. % %.} . .         Q.W.Y.H.H.H.H.H.H.j.. p 4.&...E . .   ",
"  . . Y 5.=...4 . r r b F d.H.H.H.8.. .       . . +.5.% . W.W.R.L.H.H.. % %.} . .         0 k.H.H.H.h.G v r t . e 5.....k . .   ",
"    . > 4.*...4 . . . . . . q 8.H.8.. .       . . +.5.% . S.H.H.J.H.S.. % &.} . .       . . 8.H.8.q . . . . . . e %.....> .     ",
"    . . Z 5...4 .         . . . r H . .       . . +.5.1 . o m F F n o . 3 %.} . .       . . L r . . .         . 9 ....k . .     ",
"      . X o...4 .             . . . .         . . @.5.+.s o . . . . o s o...{ . .         . . . .             . 2 ..} X .       ",
"      . . 3 k . .                 . .         . . e @.5.5.#.^ Y Y ^ $.&.%.{ 4 . .         . .                 . . k 3 . .       ",
"        . . . .                                 . . . s ^ 5.5.5.*.%...E a . . .                                 . . . .         ",
"                                                    . . . X , u u , o . . .                                                     ",
"                                                        . . . . . . . .                                                         ",
"                                                        . 7 v.c.2.2.< .                                                         ",
"                                                        . z C.B.n.n.l .                                                         ",
"                                                        . # N.m.n.b.$ .                                                         ",
"                                                        . . x n.n.x . .                                                         ",
"                                                          . . ! ! . .                                                           ",
"                                                            . . . .                                                             ",
"                                                              . .                                                               "
};
