/* XPM */
static char *game_over1687093640[] = {
/* columns rows colors chars-per-pixel */
"64 64 193 2 ",
"   c None",
".  c #000000",
"X  c #0C0505",
"o  c #000709",
"O  c #00090C",
"+  c gray6",
"@  c #140206",
"#  c #130609",
"$  c #1C0309",
"%  c #1C0A0E",
"&  c #17080B",
"*  c #151407",
"=  c #000E14",
"-  c #0E0F10",
";  c #001117",
":  c #00141C",
">  c #1C1C15",
",  c #27040C",
"<  c #210B10",
"1  c #380611",
"2  c #360610",
"3  c #211F12",
"4  c #3B151D",
"5  c #331219",
"6  c #3A3407",
"7  c #2F2C1A",
"8  c #3C381C",
"9  c #001B26",
"0  c #1D1F20",
"q  c #00222D",
"w  c #1F2225",
"e  c #002230",
"r  c #002C3C",
"t  c #002639",
"y  c #520818",
"u  c #44151F",
"i  c #680B1F",
"p  c #441821",
"a  c #7C0D25",
"s  c #611928",
"d  c #61222F",
"f  c #762939",
"g  c #752939",
"h  c #524A09",
"j  c #675C0C",
"k  c #73691B",
"l  c #4C472B",
"z  c #645E39",
"x  c #655E2E",
"c  c #70683D",
"v  c #002E44",
"b  c #003244",
"n  c #003449",
"m  c #00394E",
"M  c #003B52",
"N  c #003B57",
"B  c #00435B",
"V  c #004057",
"C  c #3E454A",
"Z  c #004C6B",
"A  c #004864",
"S  c #004D72",
"D  c #005476",
"F  c #005379",
"G  c #005B7B",
"H  c #00516F",
"J  c #464D54",
"K  c #505457",
"L  c #7B7345",
"P  c #736C40",
"I  c #5A646C",
"U  c #646E77",
"Y  c #67717B",
"T  c #666B6F",
"R  c #8D0F2A",
"E  c #810D26",
"W  c #9A1936",
"Q  c #A61131",
"!  c #AC1C3C",
"~  c #A91132",
"^  c #B6193B",
"/  c #852A3D",
"(  c #912039",
")  c #9C233D",
"_  c #C5143B",
"`  c #D0153E",
"'  c #897B10",
"]  c #872F42",
"[  c #963449",
"{  c #953348",
"}  c #AB2643",
"|  c #A2394F",
" . c #A53A51",
".. c #B13D56",
"X. c #B53F58",
"o. c #B52E4C",
"O. c #DC1842",
"+. c #C71F44",
"@. c #E21743",
"#. c #E21844",
"$. c #C52E4F",
"%. c #D8244B",
"&. c #CA3151",
"*. c #E4264F",
"=. c #E62851",
"-. c #E9345B",
";. c #EA3C61",
":. c #BC425C",
">. c #857E4B",
",. c #C0435E",
"<. c #CE4864",
"1. c #CC4562",
"2. c #D34966",
"3. c #D74B69",
"4. c #DA4C6A",
"5. c #E9496B",
"6. c #EF4E71",
"7. c #EC5373",
"8. c #E75170",
"9. c #F05475",
"0. c #E5506F",
"q. c #D2BD18",
"w. c #D2BE31",
"e. c #DFC81A",
"r. c #F6DD1C",
"t. c #FDE31D",
"y. c #FEE73A",
"u. c #FDE42A",
"i. c #8C844F",
"p. c #AAA060",
"a. c #B8AD68",
"s. c #C1B66D",
"d. c #F3DD48",
"f. c #FEE84B",
"g. c #DDD07C",
"h. c #FEED7D",
"j. c #005B80",
"k. c #005781",
"l. c #006183",
"z. c #00658C",
"x. c #00688D",
"c. c #006C93",
"v. c #006B9E",
"b. c #006596",
"n. c #00749E",
"m. c #0074A4",
"M. c #0079A5",
"N. c #0073AB",
"B. c #007FAC",
"V. c #007EBA",
"C. c #007BB3",
"Z. c #006FA0",
"A. c #717C87",
"S. c #6F7B85",
"D. c #0083B3",
"F. c #008ABB",
"G. c #7A838B",
"H. c #7A8792",
"J. c #0084C4",
"K. c #0089CB",
"L. c #008BC6",
"P. c #0095CC",
"I. c #0091C4",
"U. c #009BD2",
"Y. c #0098D8",
"T. c #008FD0",
"R. c #00A4DF",
"E. c #00A6E1",
"W. c #00ADEB",
"Q. c #00AAE7",
"!. c #81878C",
"~. c #858A90",
"^. c #8896A4",
"/. c #99A3AB",
"(. c #9BABB9",
"). c #A8B0B6",
"_. c #EEE086",
"`. c #FEEF8F",
"'. c #F3E489",
"]. c #B6BEC5",
"[. c #A8B4C0",
"{. c #B7C7D5",
"}. c #BBC3CB",
"|. c #BFD2E5",
" X c #BCCFE1",
".X c #C4CCD4",
"XX c #C5D9EC",
"oX c #CBDCEC",
"OX c #D1DAE3",
"+X c #D9E3EB",
"@X c #D3E2F1",
"#X c #DCE9F4",
"$X c #E3EDF6",
/* pixels */
"          . . . . . . . . . .             . . . . .             . . . . . .           . . . . . .     . . . . . . . . . . . . . ",
"      . . . . % < < < < < . .         . . . . & X . . .         . . $ , X . .       . . X < < . .     . X $ $ % % % % % % % . . ",
"    . . 4 ..9.9.9.9.9.7.9.< .       . . @ [ 7.9.7. .< . .       . $ @.*.<.& . .   . . < 4.9.9.X .     . 1 @.-.9.9.7.9.7.9.7.% . ",
"  . . s 7.9.4.X...........& .       . @ +.9.0.,.0.9.4.< .       . $ @.*.9.<.& . . . < 4.9.7.9.. .     . 1 @.&.X.:...:...X.:.# . ",
"  . 2 5.8.d . . . . . . . . .     . . R =. .X . . { 9.X.. .     . $ #.! ] 7.2.% . < 4.9./ <.9.X .     . 1 @.( . . . . . . . . . ",
". . ~ 6.d . . . . . . . . . .     . . O.%.X . . . . 2.7.& .     . $ #.! . ] 9.2.p 4.7.f . <.9.. .     . 1 @.( . . . . . . . . . ",
". . @.2.. .                       . $ #.^ . .   . . | 9.4 .     . $ @.! . . f 9.9.9.f . . <.9.. .     . 1 @.( . .               ",
". $ @.X.. .                       . $ #.! . .   . . [ 9.4 .     . $ @.! . . . g 7.f . . . <.9.X .     . 1 @.( . . . . . . .     ",
". $ @.... .   . . . . . . . .     . $ @.! . .   . . [ 9.4 .     . $ @.! . . . . 5 . . . . <.9.. .     . 1 @.( . . . . . . .     ",
". , @.... .   . . y R / { # .     . $ @.! . . . . . [ 9.4 .     . $ @.! . .   . . .   . . <.9.. .     . 1 @.$.[ [ [ [ [ < .     ",
". $ @.... .   . . R @.;.9.% .     . $ @.! . . . . . [ 7.u .     . $ @.! . .     .     . . <.9.X .     . 1 @.-.7.9.9.9.7.4 .     ",
". $ @.... .   . . , 1 $.9.% .     . $ @.%...........4.9.4 .     . $ @.! . .           . . <.9.. .     . 1 @.} 4 4 4 4 4 X .     ",
". $ @.o.. .   . . . . X.9.% .     . $ @.*.9.9.7.7.9.9.9.4 .     . $ @.! . .           . . <.9.. .     . 1 @.( . . . . . . .     ",
". @ @.o.. .       . . :.9.& .     . , @.^ < < < < < | 9.4 .     . $ @.! . .           . . <.9.X .     . 1 @.( . .               ",
". . ` O.# .       . # 7.4.. .       ^ #.! . . . . . [ 9.4 .     . $ @.! . .           . . <.9.. .     . 1 @.( . .               ",
". . E #.W . . . . .  .9.] . .       @.#.! . .   . . [ 9.4 .     . $ @.! . .           . . <.9.. .     . 1 @.( . . . . . . . . . ",
"  . @ _ @.^ u < p :.9.2.# .       . , @.! . .   . . { 6.4 .     . $ @.! . .           . . 1.6.. .     . 1 #.) < % % % % % % . . ",
"  . . , ^ @.@.=.-.5.$., . .       . $ @.~ . .   . . R @.1 .     . $ @.~ . .           . . _ #.. .     . 1 #.-.9.9.9.9.9.9.9.% . ",
"    . . . y R Q R y . . .         . @ Q a . .   . . i Q , .     . @ ~ a . .           . . R ~ . .     . , ~ } X.X.X.X.X.X.X.& . ",
"        . . . . . . .             . . . . . .   . . . . . .     . . . . . .           . . . . . .     . . . . . . . . . . . . . ",
"            . . .                 . . . . .       . . . . .     . . . . .               . . . . .     . . . . . . . . . . . . . ",
"                                                                                                                                ",
"                                                                                                                                ",
"                                                        . . . . . . . .                                                         ",
"                                                                                                                                ",
"                                                                                                                                ",
"                                                              . .                                                               ",
"                          . . . . . . . . . . . . . . . . . . . . . . . . . . . . . .     . . . . . .                           ",
"                        . . . . . . . . . . . . . . . . . 3 L p.p.L 3 . . . . . . . . /.$X> . . . . . .                         ",
"                          . J (.[.].].].].].].].}./.o . c `.`.`.`.`.'.P . o ^.(.[.].].+X$X}.].}.].K .                           ",
"                          . X A.|.@X$X$X$X$X$X$X$XK . k `.`.`.`.`.`.`.`.P . K XX@X$X$X$X$X$X$X+X!.o .                           ",
"          . .               . . . 0 oX@X$X$X$X$XOXX * d.`.`.`.`.`.`.`.`._.* o {.XX$X$X$X$X$X0 . . .               . .           ",
"          . .                 . . . |.XX$X$X$X$X/.. j f.`.7 . _.'.. 7 `.`.z . ^.XX#X$X$X$X+X. . .                 . .           ",
"                    . .         . . A.XX@X$X$X$X!.. ' y.`.l > '.'.3 l `.`.i.. A.XX#X$X$X$XG.. .         . .                     ",
"                    . .           . . I /.{.$X$X~.. ' t.h.`.`.`.`.`.`.`.`.>.. G.XX#X.X).T X .           . .                     ",
"                  . . . . .         . . . C oX@X).. h t.y.`.s.a.a.s.`.`.`.l . /.XX+XJ . . .         . . . . .                   ",
"                  . . . . .             . w XXXXoX+ X e.t.f.3 . . 3 `.`._.o + XXXXXXw .             . . . . .                   ",
"                    . .                 . . H.XXXXU . 6 r.t.k x z L `.'.7 . U XXXXH.. .                 . .                     ",
"                                          . . J Y U o . 6 q.t.t.u.y.w.6 . o U U J . .                                           ",
"                                            . . . . . . . . 6 j j 6 . . . . . . . .                                             ",
"                                                        . . . . . . . .                                                         ",
"                                                                                                                                ",
"                                                                                                                                ",
"              . .               . . . . .             . . . . .       . . . . . . . . . . . .       . . . . . . .               ",
"        . . . . . . . .         . . . . .             . . . . .     . . . . . . . . . . . . .     . . . . . . . . . . .         ",
"      . . O A M.M.G : . .       . O b.Z . .         . . H D.: .     . . F b.B.D.D.D.D.D.D.Z .     . . S z.D.B.B.M.Z O . .       ",
"      . 9 V.Q.W.W.W.R.b . .     . . N.J.o .         . . U.U.. .     . . v.K.Q.W.Q.W.W.W.W.z..     . . v.K.Q.W.W.W.W.U.9 .       ",
"    . o N.Y.n.t e l.W.E.; .       . Z K.t .         . q W.z.. .     . . v.K.e : : : : : : = .     . . v.K.e 9 : t n.Q.P.o .     ",
"    . n K.m.. . . . l.W.G .       . e K.F . .       . D W.b .       . . v.K.= . . . . . . . .     . . v.K.; . . . . D.W.M .     ",
"    . S K.M .     . q W.D.. .     . . V.C.. .     . . F.E.o .       . . v.K.= .                   . . v.K.: .     . V W.l..     ",
"    . F K.r .     . ; W.D.. .     . . k.K.9 .     . ; W.M.. .       . . v.K.; .                   . . v.K.; .   . . B W.G .     ",
"    . F K.r .     . ; W.F.. .       . v K.A .     . A W.B .         . . v.K.; . . . . . . .       . . v.K.; . . . o F.W.b .     ",
"    . F K.r .     . ; W.D.. .       . O J.Z.. . . . M.W.; .         . . v.K.n r t r r q . .       . . v.K.m v r V F.W.F.. .     ",
"    . F K.r .     . ; W.D.. .       . . b.J.= . . o R.F.. .         . . v.K.Q.W.W.W.W.M.. .       . . v.K.Q.W.W.W.W.I.; .       ",
"    . F K.v .     . ; W.F.. .         . N K.N . . n W.D .           . . v.K.n.c.c.c.c.A . .       . . v.K.c.n.P.W.W.j.. .       ",
"    . F K.r .     . ; W.D.. .         . : K.z.. . x.W.q .           . . v.K.= . . . . . . .       . . v.K.; . . M R.W.M . .     ",
"    . F K.r .     . ; W.F.. .         . . N.J.. . U.U.. .             j.V.K.= . . . . . .         . . v.K.; . . . r W.U.o .     ",
"    . F K.b .     . : W.D.. .           . Z K.r e W.z.. .             T.K.K.; .                   . . v.K.; .   . . n.W.n .     ",
"    . N K.D . . . . V W.c.. .           . e K.F D W.b .               e N.K.= . . . . . . . .     . . v.K.; .     . V W.G .     ",
"    . ; J.J.n . . e U.W.r .             . . V.C.F.E.o .             . . v.K.= . . . . . . . .     . . v.K.: .     . b W.z..     ",
"    . . N J.T.P.I.W.W.x.. .             . . k.K.P.b.. .             . . v.K.D.D.D.D.D.D.D.Z .     . . v.K.; .     . r Y.G .     ",
"      . . r N.K.R.P.A . .                 . v K.K.m .               . . v.K.Q.W.W.W.W.W.W.z..     . . v.K.; .     . t K.F .     ",
"        . . . O = . . .                   . . : ; o .               . . = ; : : : : : : : = .     . . = ; . .     . o ; = .     ",
"            . . . . .                     . . . . . .               . . . . . . . . . . . . .     . . . . . .     . . . . .     "
};
