/* XPM */
static char *astronaut1687014780[] = {
/* columns rows colors chars-per-pixel */
"64 64 149 2 ",
"   c None",
".  c #000000",
"X  c #080601",
"o  c #0D0A02",
"O  c #070D0E",
"+  c #0C0C0C",
"@  c #100C03",
"#  c #18150B",
"$  c #171307",
"%  c #0F0F10",
"&  c #0D1A1E",
"*  c #0F1010",
"=  c #131313",
"-  c #161718",
";  c #171818",
":  c #1C1C1D",
">  c #231B06",
",  c #362A09",
"<  c #3A2D09",
"1  c #312A16",
"2  c #0E1D21",
"3  c #1E1F20",
"4  c #1F2022",
"5  c #14292F",
"6  c #112328",
"7  c #183238",
"8  c #183137",
"9  c #172F36",
"0  c #202122",
"q  c #2B2C2C",
"w  c #2F3030",
"e  c #333334",
"r  c #3C3D3E",
"t  c #373A3E",
"y  c #45360B",
"u  c #48380C",
"i  c #513F0D",
"p  c #5E490F",
"a  c #675011",
"s  c #7E6214",
"d  c #524624",
"f  c #5D4F29",
"g  c #5F512A",
"h  c #60522B",
"j  c #756334",
"k  c #1D3A42",
"l  c #3D3F41",
"z  c #22444E",
"x  c #3E4042",
"c  c #234650",
"v  c #254B55",
"b  c #27505B",
"n  c #346B7A",
"m  c #4D4E4F",
"M  c #4E4F51",
"N  c #4F5052",
"B  c #505153",
"V  c #5B5C5E",
"C  c #575859",
"Z  c #5E5F61",
"A  c #5D6064",
"S  c #5D6268",
"D  c #606163",
"F  c #6A6B6D",
"G  c #666769",
"H  c #6C6E70",
"J  c #76787A",
"K  c #797A7D",
"L  c #907017",
"P  c #997819",
"I  c #A07D1A",
"U  c #86733C",
"Y  c #8F7A40",
"T  c #937D41",
"R  c #C36354",
"E  c #A4801A",
"W  c #B38C1D",
"Q  c #CA9E20",
"!  c #D6A723",
"~  c #EFBB26",
"^  c #F2BD27",
"/  c #FFC729",
"(  c #AD944D",
")  c #C1A456",
"_  c #D4B55E",
"`  c #FF826E",
"'  c #D7B860",
"]  c #D8B960",
"[  c #E2C165",
"{  c #F2CF6C",
"}  c #F7D36E",
"|  c #F8D46E",
" . c #FCD770",
".. c #387282",
"X. c #3B798A",
"o. c #468FA3",
"O. c #4D9DB3",
"+. c #4790A5",
"@. c #4FA1B8",
"#. c #51A4BB",
"$. c #54ACC4",
"%. c #58B4CE",
"&. c #57B1CA",
"*. c #5BBAD4",
"=. c #5DBED9",
"-. c #59B6D0",
";. c #5FC1DC",
":. c #60C4DF",
">. c #61C6E2",
",. c #62C9E5",
"<. c #65CEEB",
"1. c #67D1EE",
"2. c #69D6F4",
"3. c #67D3F0",
"4. c #838487",
"5. c #898B8D",
"6. c #86878A",
"7. c #818790",
"8. c #828991",
"9. c #898F98",
"0. c #929497",
"q. c #959799",
"w. c #97999B",
"e. c #989A9D",
"r. c #9D9FA2",
"t. c #9EA0A3",
"y. c #A2A5A7",
"u. c #AEB0B3",
"i. c #AAB2BD",
"p. c #B1B3B6",
"a. c #B6B9BC",
"s. c #B9BBBF",
"d. c #B4B7BA",
"f. c #BCBEC1",
"g. c #BDC0C3",
"h. c #C1C4C7",
"j. c #C3C5C9",
"k. c #C6C9CC",
"l. c #C9CCCF",
"z. c #CACDD0",
"x. c #CFD2D6",
"c. c #D3D6D9",
"v. c #D5D8DB",
"b. c #D8DBDF",
"n. c #DBDEE2",
"m. c #DEE1E5",
"M. c #E1E4E7",
"N. c #E2E5E9",
"B. c #E6E9ED",
/* pixels */
"                                                                                                                                ",
"                                                                                                                                ",
"                                                                                                                                ",
"                                                                                                                                ",
"                                                        . . . . . . . .                                                         ",
"                                                . . . . . . . . . . . . . . .                                                   ",
"                                            . . . . 0 D w.s.v.N.N.c.s.w.A 3 . . . .                                             ",
"                                          . . . B p.B.B.B.B.B.B.B.B.B.B.B.B.p.M . . .                                           ",
"                                      . . . x j.B.B.M.y.Z q = . . = q V q.b.B.B.h.r . . .                                       ",
"                                    . . + 5.B.B.x.D * . . . . . . . . . . + V j.B.B.6.+ . .                                     ",
"                                  . . = a.B.N.K + . . 5 ..O.*.<.>.*.@.n 8 . . X F m.B.d.= . .                                   ",
"                                . . = j.B.c.e . . c %.2.2.2.2.2.2.2.2.2.2.&.v . . q k.B.j.= . .                                 ",
"                                . + a.B.j.: . & #.2.2.;...k 2 . 2.2.2.2.2.2.2.#.& . = f.B.d.X .                                 ",
"                              . . 5.B.c.: . 7 >.2.;.b . . . . . 2.2.2.2.2.2.2.2.>.k . = j.B.6.. .                               ",
"                            . . l B.N.e . 7 <.2.+.O . . v +.*.1.2.2.2.2.2.2.2.2.2.1.7 . q m.B.r . .                             ",
"                  . . . . . . . j.B.J . 2 :.2.X.. . c =.2.2.2.2.2.2.2.2.2.2.2.2.2.2.>.2 . F B.h.. . . . . . .                   ",
"                . . . . . . . B B.x.+ . @.2.+.. . X.2.2.2.2.2.2.2.2.2.2.2.2.2.2.2.2.2.#.. X j.B.N . . . . . . .                 ",
"                . . 8.i.i.- . p.B.D . c 2.;.O . X.2.2.2.2.2.2.2.2.2.2.2.2.2.2.2.2.2.2.2.c . V B.p.. - i.i.8.. .                 ",
"                . . i.i.9.. 0 B.m.= . %.2.b . z 2.2.2.2.2.2.2.2.2.2.2.2.2.2.2.2.2.2.2.2.-.. O n.B.: . 9.i.i.. .                 ",
"                . . i.i.A . A B.y.. 5 2.1.2 . =.2.2.2.2.2.2.2.2.2.2.2.2.2.2.2.2.2.2.2.2.2.5 . w.B.Z . S i.i.. .                 ",
"                . . i.i.t . w.B.D . n 2.2.2.$.2.2.2.2.2.2.2.2.2.2.2.2.2.2.2.2.2.2.2.2.2.2.n . V B.0.. t i.i.. .                 ",
"                . . i.i.X . N.B.% . ,.2.2.2.2.2.2.2.2.2.2.2.2.2.2.2.2.2.2.2.2.2.2.2.2.2.2.,.. + B.N.. X i.i.. .                 ",
"                . . i.i.= . c.B.: . =.2.2.2.2.2.2.2.2.2.2.2.2.2.2.2.2.2.2.2.2.2.2.2.2.2.2.*.. 0 B.c.. = i.i.. .                 ",
"                . . i.f.3 . f.B.e . O.2.2.2.2.2.2.2.2.2.2.2.2.2.2.2.2.2.2.2.2.2.2.2.2.2.2.#.. e B.s.. 4 i.i.. .                 ",
"                . . i.i.l . 0.B.F . n 2.2.2.2.2.2.2.2.2.2.2.2.2.2.2.2.2.2.2.2.2.2.2.2.2.2.n . G B.0.. x i.i.. .                 ",
"                . . 8.i.A . A B.r.. 8 2.2.2.2.2.2.2.2.2.2.2.2.2.2.2.2.2.2.2.2.2.2.2.2.2.2.9 . y.B.Z . A i.7.. .                 ",
"                . . . . . . : B.m.+ . $.2.2.2.2.2.2.2.2.2.2.2.2.2.2.2.2.2.2.2.2.2.2.2.2.$.. + n.B.: . . . . . .                 ",
"                  . . . . . . p.B.F . v 2.2.2.2.2.2.2.2.2.2.2.2.2.2.2.2.2.2.2.2.2.2.2.2.v . F B.u.. . . . . .                   ",
"                          . . N B.z.X . O.2.2.2.2.2.2.2.2.2.2.2.2.2.2.2.2.2.2.2.2.2.2.O.. X x.B.M . .                           ",
"                            . . f.B.K . 2 ,.2.2.2.2.2.2.2.2.2.2.2.2.2.2.2.2.2.2.2.2.,.& . J B.f.. .                             ",
"                          . . . r B.N.e . 6 $.3.2.2.2.2.2.2.2.2.2.2.2.2.2.2.2.2.<.#.5 . e B.B.t . . .                           ",
"                        . . . . . 4.B.z.3 . . . . . . . . . . . . . . . . . . . . . . 3 z.B.4.. . . . .                         ",
"                    . . X U [ ( . X u.B.n.H 3 X . . . . . . . . . . . . . . . . X 3 F v.B.u.+ . ( [ U X . .                     ",
"                . . . . U  . . .j . = g.B.B.B.B.B.B.B.B.B.B.B.B.B.B.B.B.B.B.B.B.B.B.B.B.f.% . j |  . .U . . . .                 ",
"            . . . o . . [  . . .} d . % u.B.B.B.B.B.B.B.B.B.B.B.B.B.B.B.B.B.B.B.B.B.B.u.+ . d  . . . .[ . . o . . .             ",
"          . . . s ^ . .  . . . . .} d . . . . . . . . . . . . . . . . . . . . . . . . . . d }  . . . . .. . ^ s X . .           ",
"        . . X Q / / . .  . . . . . .j . . . . . . . . . . . . . . . . . . . . . . . . . . j  . . . . . .. . / / Q X . .         ",
"      . . . . p ! u . .  . . . . . .# . 8.i.i.i.i.i.i.i.i.i.i.i.i.i.i.i.i.i.i.i.i.i.i.8.. #  . . . . . .. . u ! p . . . .       ",
"      . X L o . . . . .  . . . . . .# . 8.i.i.i.i.i.i.i.i.i.i.i.i.i.i.i.i.i.i.i.i.i.i.7.. #  . . . . . .. . . . . o L X .       ",
"    . . s / E . . . . .  . . .|  . .g . . . . . . . . . . . . . . . . . . . . . . . . . . g  . . . . . .. . . . . I / s . .     ",
"    . o ^ / < . .   . .  . . .} Y 1 . . . . . . . . . . . . . . . . . . . . . . . . . . . . 1 T {  . . .. .   . . < / ~ o .     ",
"    . > P I . .     . . # j T # . . = C 5.s.x.m.B.B.B.B.B.B.B.B.B.B.B.B.B.B.B.B.m.x.s.5.C % . . # T j # . .     . . I P > .     ",
"  . . . . . .     . . . . . . . e r.m.B.B.B.B.B.B.B.B.B.B.B.B.B.B.B.B.B.B.B.B.B.B.B.B.B.B.m.r.w . . . . . . .     . . . . . .   ",
"  . . s p . .     . . ) ) . . 4.B.B.B.B.B.B.B.M.H = . . . . . . . . . . . . ; F N.B.B.B.B.B.B.B.4.. . ) ) . .     . . p s . .   ",
"  . . ^ / X .     . . _  .f . Z B.B.B.B.B.B.B.F . . . . . . . . . . . . . . . . F B.B.B.B.B.B.B.V . f  ._ . .     . o / ^ . .   ",
"  . . ^ / . .     . . f  .] . . z.B.B.B.B.B.B.; . R ` ` ` ` ` ` ` ` ` ` ` ` R . ; B.B.B.B.B.B.k.X . '  .f . .     . o / ^ . .   ",
"  . . ! W o .     . . . ]  .f . V B.B.B.B.B.B.. . ` ` ` ` ` ` ` ` ` ` ` ` ` ` . . B.B.B.B.B.B.Z . f  .' . . .     . o W ! . .   ",
"  . . . . . . . . . + . f  .' . X l.B.B.B.B.B.. . ` ` . . ` ` . . ` ` . . ` ` . . B.B.B.B.B.l.X . '  .f . + . . . . . . . . .   ",
"    . . , a . . . = a.X . '  .f . Z B.B.B.B.B.. . ` ` . . ` ` . . ` ` . . ` ` . . B.B.B.B.B.Z . g  .' . . f.= . . . a , . .     ",
"    . o ~ / u . . e.B.V . g  .' . X k.B.B.B.B.. . ` ` ` ` ` ` ` ` ` ` ` ` ` ` . . B.B.B.B.z.X . '  .f . Z B.w.. . u / ~ @ .     ",
"    . . s / L . e B.B.l.X . '  .g . V B.B.B.B.. . ` ` ` ` ` ` ` ` ` ` ` ` ` ` . . B.B.B.B.Z . f  .' . X z.B.B.w . L / s . .     ",
"      . . Q , . 0.B.B.B.Z . f  .] . . l.B.B.B.. . ` ` ` ` ` ` ` ` ` ` ` ` ` ` . . B.B.B.z.. . '  .f . Z B.B.B.0.. , Q X .       ",
"      . . $ . = N.B.B.B.k.. X '  .g . Z B.B.B.. . ` ` ` ` ` ` ` ` ` ` ` ` ` ` . . B.B.B.Z . f  .' . . z.B.B.B.N.= . $ . .       ",
"        . . . M B.B.B.B.B.Z . f  .] . X l.B.B.. . ` ` ` ` ` ` ` ` ` ` ` ` ` ` . . B.B.z.X . '  .f . Z B.B.B.B.B.m . . .         ",
"          . . 5.B.B.B.B.B.k.. + _  .g . D B.B.. . ` ` ` ` ` ` ` ` ` ` ` ` ` ` . . B.B.Z . f  .] . X k.B.B.B.B.B.6.. .           ",
"          . . a.B.B.B.B.B.B.V . f  ._ . = B.B.. . ` ` ` ` ` ` ` ` ` ` ` ` ` ` . . B.B.- . _  .f . Z B.B.B.B.B.B.d.. .           ",
"          . . l.B.B.B.B.B.B.z.. . ) ) . ; B.B.; . R ` ` ` ` ` ` ` ` ` ` ` ` R . ; B.B.; . ) ) . X l.B.B.B.B.B.B.l.. .           ",
"          . . m.B.B.B.B.B.B.B.F . . . . H B.B.F . . . . . . . . . . . . . . . . H B.B.F . . . . F B.B.B.B.B.B.B.n.. .           ",
"          . . B.B.B.B.B.B.B.B.N.. . = F N.B.B.N.H - . . . . . . . . . . . . ; H M.B.B.N.F = . . m.B.B.B.B.B.B.B.B.. .           ",
"          . . B.B.B.B.B.B.B.B.B.. . B.B.B.B.B.B.B.B.B.B.B.B.B.B.B.B.B.B.B.B.B.B.B.B.B.B.B.B.. . B.B.B.B.B.B.B.B.B.. .           ",
"          . . B.B.B.B.B.B.B.B.B.. . B.B.B.B.B.B.B.B.B.B.B.B.B.B.B.B.B.B.B.B.B.B.B.B.B.B.B.B.. . B.B.B.B.B.B.B.B.B.. .           ",
"          . . . . . . . . . . . . . . . . . . . . . . . . . . . . . . . . . . . . . . . . . . . . . . . . . . . . . .           ",
"          . . . . . . . . . . . . . . . . . . . . . . . . . . . . . . . . . . . . . . . . . . . . . . . . . . . . . .           ",
"                                                                                                                                "
};
