/* XPM */
static char *light_saber1687095345[] = {
/* columns rows colors chars-per-pixel */
"64 64 163 2 ",
"   c None",
".  c #1D1D1F",
"X  c #22201F",
"o  c #1E1E20",
"O  c #231E22",
"+  c #2F1F28",
"@  c #1C2325",
"#  c #1B292A",
"$  c #193433",
"%  c #193B3B",
"&  c #232325",
"*  c #2D2A24",
"=  c #232528",
"-  c #2D2721",
";  c #332C23",
":  c #3B212C",
">  c #33202A",
",  c #343128",
"<  c #2D333A",
"1  c #31353A",
"2  c #34383D",
"3  c #292D31",
"4  c #403222",
"5  c #523D24",
"6  c #4C2335",
"7  c #58243A",
"8  c #403D31",
"9  c #524A2C",
"0  c #7A5628",
"q  c #7A6C35",
"w  c #353E48",
"e  c #672840",
"r  c #682840",
"t  c #135C54",
"y  c #174743",
"u  c #3E444A",
"i  c #13635D",
"p  c #136865",
"a  c #42515E",
"s  c #7A6949",
"d  c #435260",
"f  c #4F5860",
"g  c #525C64",
"h  c #4E6374",
"j  c #5C6A77",
"k  c #616C77",
"l  c #865D28",
"z  c #94662B",
"x  c #907F3B",
"c  c #8F7339",
"v  c #8E2A55",
"b  c #9E2C5C",
"n  c #862B4E",
"m  c #A02D5C",
"M  c #AF2E64",
"N  c #B12E65",
"B  c #A33663",
"V  c #A43866",
"C  c #B63269",
"Z  c #C7346B",
"A  c #CF3470",
"S  c #D13571",
"D  c #D83973",
"F  c #E43A76",
"G  c #E63B78",
"H  c #BE517F",
"J  c #B84173",
"K  c #E7457E",
"L  c #98863F",
"P  c #DB9235",
"I  c #988C5F",
"U  c #DC9944",
"Y  c #C49153",
"T  c #C4AC4D",
"R  c #EAA54C",
"E  c #C59860",
"W  c #DCA866",
"Q  c #DCC158",
"!  c #DBC56E",
"~  c #FFC376",
"^  c #607C93",
"/  c #687580",
"(  c #FF3E82",
")  c #FF4989",
"_  c #FF5F97",
"`  c #DE729C",
"'  c #0D968A",
"]  c #07B09A",
"[  c #08B3A5",
"{  c #778795",
"}  c #6B8295",
"|  c #6B8BA3",
" . c #7397B4",
".. c #779CBA",
"X. c #789EBC",
"o. c #04C5AC",
"O. c #0EC7AE",
"+. c #10C7AE",
"@. c #00DABE",
"#. c #08C2BB",
"$. c #00DDC0",
"%. c #04D9CC",
"&. c #06D1CB",
"*. c #00E6CE",
"=. c #00EBD6",
"-. c #04E5DE",
";. c #0EE5DE",
":. c #10E5DE",
">. c #1DE1C7",
",. c #37EFDF",
"<. c #24E2C9",
"1. c #00FFF7",
"2. c #1DFFF8",
"3. c #24FFF8",
"4. c #889BAB",
"5. c #96ACBD",
"6. c #98AEBF",
"7. c #DA9DB7",
"8. c #E99FBC",
"9. c #DCCA85",
"0. c #EAD689",
"q. c #FFE890",
"w. c #86AAC8",
"e. c #98AEC0",
"r. c #95AEC1",
"t. c #9AB1C3",
"y. c #86B2D4",
"u. c #88B4D7",
"i. c #8CB7D8",
"p. c #8CBADF",
"a. c #FFA4C4",
"s. c #9CC1DF",
"d. c #ACC6DA",
"f. c #AEC9DE",
"g. c #95C6ED",
"h. c #9BCAEE",
"j. c #96C8EE",
"k. c #A4CEEE",
"l. c #A1CDF0",
"z. c #A6D0F1",
"x. c #ACD3F1",
"c. c #BCDAF2",
"v. c #B4D8F4",
"b. c #97F7EE",
"n. c #B2FAF4",
"m. c #EED2DE",
"M. c #EFC7D7",
"N. c #C1DEF5",
"B. c #FFD5E4",
"V. c #F8DFE9",
"C. c #CBE4F7",
"Z. c #C6E0F6",
"A. c #D8EAF9",
"S. c #C5F7F1",
"D. c #C7F8F1",
"F. c #C5FFFD",
"G. c #C8FCF7",
"H. c #E5F1FB",
"J. c #ECF4FC",
"K. c #E4FDFB",
"L. c #F2F8FD",
"P. c #FFFFFF",
"I. c #F6F4F9",
/* pixels */
"      . O .                                                                                                         . . o       ",
"    . O O . .                                                                                                     . . # @ .     ",
"  . O v m > . .                                                                                                   [ y o.] @ .   ",
". O v N C D : o .                                                                                             . ' $.$.$.=.&.@ . ",
". O m N C ( F : . .                                                                                         . . % @.@.=.1.-.# . ",
". . : N N S ( F : . .                                                                                     . . $ o.$.=.1.-.% . . ",
"  . m N N N S ( F : . .                                                                                 . . $ o.@.=.1.-.% . .   ",
"      n > b N S ( F : . .                                                                             . . $ o.$.=.1.-.% . .     ",
"      . . + b M D a.K > o @                                                                         . . $ o.@.=.1.-.% . .       ",
"        . . + b 7.P.B.K : o .                                                                     . . $ o.$.=.1.-.% . .         ",
"          . . > V m.P.B.K : . .                                                                 . . $ O.>.=.1.-.% . .           ",
"            . . > B m.P.B.K : . o                                                             . . $ O.S.K.2.-.% . .             ",
"              . . + V m.P.B.K : . .                                                         X . $ O.$.b.F.:.% . .               ",
"                . . > V m.P.B.K : o .                                                     o X $ O.S.b.1.:.% . .                 ",
"                  . . + V m.P.B.K : . .                                                 o . $ o.<.K.F.;.% . .                   ",
"                    . . > V m.P.B.K : . .                                             o o $ +.n.,.3.:.% . .                     ",
"                      . . > V m.P.B.K : . .       . .                               . . $ +.D.P.n.;.% o .                       ",
"                        . . > V m.P.B.K : . .     .                               . . $ +.D.P.F.:.% o o                         ",
"                          . . > V m.P.B.K : . o       . .                       . . $ +.D.P.F.:.% o o                           ",
"                            . . + V m.P.B.K : . .     . @                     . . $ +.S.P.F.:.% o o                             ",
"                              . o - V m.P.B.K : o o       . O               . . $ +.S.P.F.:.% . o                               ",
"                                . . > B m.P.B.) : o X     . .             . . $ +.S.P.F.:.% . .                                 ",
"                                  . o > V m.L.B.G : . .                 . . $ O.S.P.F.:.% . .                                   ",
"                                    o o & V M.` ) K : . .             . . $ O.S.P.F.;.% . .                                     ",
"                                      . . > b J V.B.K : . .         . . $ O.S.P.F.;.% . .     .                                 ",
"                                        . . > B m.M.) G : . .     X . $ o.$.b.F.;.% @ .       . .                               ",
"                                          . . > V C 8.B.K : . . . . $ o.$.=.1.;.% o .     .                                     ",
"                                            . . > m M.I._ F : . . $ o.$.=.1.-.% . .     . .                                     ",
"                                              . . + B H A ( r . . t @.=.1.-.% @ .                                               ",
"                                                . . > b N 7 . 1 1 . i 1.-.% o o     . .                                         ",
"                                                  . . > 6 . < d.d.1 . p % . o         .                                         ",
"                                                    . . . < y.z.N.d.1 o o o     . .                                             ",
"                                                    . . . < y.g.k.d.< . . .     . .                                             ",
"                                                  . . $ t o < y.y.1 . e : . .                                                   ",
"                                                . . $ o.$.p o < 3 . 7 ( G : O                                                   ",
"                                              . . $ o.@.=.1.p o . 6 N A ( G D                                                   ",
"                                            . . $ o.$.=.1.-.% o . + b N A ( ( Z . .                                             ",
"                                          . . $ o.$.=.1.-.% @ o . . + b N A G F : . .                                           ",
"                                      . . . $ o.@.=.1.1.%.@ .     . . + b N D ( F : . . o                                       ",
"                                    . . . @ o.$.*.1.-.#.            . . + m N S ( D & . . .                                     ",
"                                  . = | 2 . t @.@.%.% o               o . + b M A e . < | = o                                   ",
"                                . . d h.f.2 . t o.$ . .                 . . + b 6 . < i.c.g o .                                 ",
"                                  . . h l.f.2 . @ . o                     . . O o < i.c.k X .                                   ",
"                            . . o . - . h k.f.2 . .                         . . < i.c.j X X . . . .                             ",
"                  . .     . . . O z W , . h k.4.. .                         . . | v.k . ; Q I . . . .                           ",
"                . . . . . O  .a . 4 R W * o d & .                             . = d . * Q 0.8 . a  .= .                         ",
"              . . 9 , o & ..g.k.f . 4 c . . . .                                 o o o . L 2 X a g.j...& u                       ",
"            . . 9 x . & ..l.H.N.c.f . . o   .                                     o   o . . a g.j.j.c.f.N.                      ",
"          o o & c . = X.j.A.P.H.N.c.f . .                                             o @ u g.j.j.c.N.N.N.a .                   ",
"            . . . @ X.h.C.N.A.c.N.N.5.. .                                             o o  .g.j.l.N.N.N.N.5.. .                 ",
"              o @ X.j.J.P.A.Z.Z.N.5.= .                                                 o = ..j.j.l.N.N.N.N.6.& .               ",
"            o = X.l.v.C.H.c.Z.c.f.& .                                                     o & ..j.j.j g c.N.N.5.= .             ",
"          . = ..k.L.P.Z.Z.c.Z.c.N.u                                                       . . = ..p.< 3 f.c.N.N.e.= .           ",
"        . = ..l.L.P.J.N.c.Z.t.u                                                         . . ; . = ..u.w.w.j N.N.N.e.= .         ",
"      . = ..l.L.P.J.N.N.N.6.= @                                                         . . 5 z o = ..j.w O 4.N.N.N.t.= .       ",
"    . & ..j.L.P.J.N.N.N.6.= .                                                             . . 5 l . = ..u.^ k.{ N.N.N.t.& .     ",
"    . . ^ g.c.H.N.c.N.e.= .                                                                 . . . . . = X.g.h o k Z.Z.{ X .     ",
"  . . . o ^ g.j.c.Z.e.= .                                                                     . . .   o = X.i.d g.Z.{ X X . .   ",
". . 0 Y & . ^ g.h.r.= .                                                                         .       o = ..j.g.} . X T s . . ",
". & P ~ E & o ^ X.= @                                                                                     o = ..^ . X T q.9.& . ",
". . ; U ~ E o o & .                                                                                         . & . . T q.9., . . ",
"  . . ; P s o o .                                                                                             . . . q ! , @ .   ",
"    . . & . .                                                                                                     . . & . .     ",
"      . . .                                                                                                         . . .       "
};
