/* XPM */
static char *flag1687095572[] = {
/* columns rows colors chars-per-pixel */
"64 64 106 2 ",
"   c None",
".  c #4B4439",
"X  c #4F483E",
"o  c #524A3E",
"O  c #4E4B41",
"+  c #524C43",
"@  c #575045",
"#  c #5A5243",
"$  c #5A544A",
"%  c #5F594F",
"&  c #5A5A54",
"*  c #615A46",
"=  c #635C53",
"-  c #5F615F",
";  c #676049",
":  c #70684E",
">  c #6B665D",
",  c #776F51",
"<  c #797252",
"1  c #646664",
"2  c #6E6961",
"3  c #6A6E6E",
"4  c #746E66",
"5  c #767269",
"6  c #7B756E",
"7  c #6D777A",
"8  c #7E7973",
"9  c #72797C",
"0  c #817856",
"q  c #867D59",
"w  c #817C75",
"e  c #8D855D",
"r  c #968D61",
"t  c #999265",
"y  c #86827B",
"u  c #8A857F",
"i  c #A8A06D",
"p  c #B6AD74",
"a  c #BBB278",
"s  c #C1B978",
"d  c #737C82",
"f  c #798287",
"g  c #8C8781",
"h  c #8E8983",
"j  c #918C86",
"k  c #918F89",
"l  c #949089",
"z  c #99948E",
"x  c #818E96",
"c  c #828F98",
"v  c #85949C",
"b  c #9B9792",
"n  c #9D9A95",
"m  c #9F9D99",
"M  c #A29E99",
"N  c #A5A29D",
"B  c #A8A49F",
"V  c #8295A1",
"C  c #8A99A5",
"Z  c #879BA9",
"A  c #8C9EA9",
"S  c #8FA2AF",
"D  c #8EA6B9",
"F  c #8EA8BC",
"G  c #92AABC",
"H  c #A9A6A2",
"J  c #ADA9A5",
"K  c #ADACAB",
"L  c #B1ADA9",
"P  c #B4B2AE",
"I  c #B4B3B2",
"U  c #B9B6B2",
"Y  c #BBB9B6",
"T  c #BBBBBA",
"R  c #C0BEBB",
"E  c #CAC281",
"W  c #D3CB85",
"Q  c #D9D087",
"!  c #DED58B",
"~  c #E4DB8D",
"^  c #E9DF91",
"/  c #EDE393",
"(  c #F0E795",
")  c #F1E896",
"_  c #F8EE99",
"`  c #FFF59D",
"'  c #C4C2BF",
"]  c #9BB8CE",
"[  c #9EBBD2",
"{  c #A4C3DA",
"}  c #ADCDE7",
"|  c #B4D3EE",
" . c #B5D6F2",
".. c #B6D8F3",
"X. c #BBDEFB",
"o. c #C5C4C2",
"O. c #CAC9C6",
"+. c #CDCCCB",
"@. c #D1CECD",
"#. c #D4D4D3",
"$. c #DCDCDB",
"%. c #E1E1E0",
"&. c #E8E8E7",
"*. c #EDECEC",
"=. c #F0F0EF",
"-. c #F5F5F5",
/* pixels */
"                                                                                                                                ",
"                                                                                                                                ",
"                                                                                                                                ",
"                              . . .                                                                                             ",
"                        . . . . . . . . .                                                                                       ",
"                      . . . & d c f - + . . .                                                                                   ",
"                  . . . 3 | X.X.X.X.X.[ V . . .                                                                                 ",
"                  . . S X.X.X.X.X.X.X...] ] O .                                                                                 ",
"                . . c X.X.X.X.X.X.X.X.X. .] D . .                                                                               ",
"                . + X.X.X.X.X.X.X.X.X.X...] D 7 . .                                                                             ",
"              . . C X.X.X.X.X.X.X.X.X.X.X.} D S . .                                                                             ",
"              . . | X.X.X.X.X.X.X.X.X.X.X. .F ] O .                                                                             ",
"            . . . X.X.X.X.X.X.X.X.X.X.X.X.X.F F & . . .                                                                         ",
"  . . . . . . . . X.X.X.X.X.X.X.X.X.X.X.X.X.F F & . . . . . . .                                                                 ",
". . . + 5 N O.. .  .X.X.X.X.X.X.X.X.X.X.X. .F F O . R H 6 + . . .                                                               ",
". . b %.%.%.%.@ . S X.X.X.X.X.X.X.X.X.X.X.} F G . O %.%.%.T K . .                                                               ",
"  . % %.%.%.$.g . @ X.X.X.X.X.X.X.X.X.X.X.[ G d . 4 %.%.$.J 8 .             . . .                                               ",
"  . . +.%.%.%.$.. . v X.X.X.X.X.X.X.X.X...G G . . @.%.%.o.P . .       . . . . . . . . X . X                                     ",
"    . 8 %.%.$.%.w . . G X.X.X.X.X.X.X.X.] ] + . > %.%.$.K m . .       . . 0 a E E a e o . . . .                                 ",
"    . . $.%.%.U . . . . 9 ..X.X.X.X.X.{ V . . . . M %.@.K @ .         X . ! ` ` ` ` ` ` ( e . . .                               ",
"    . . H %.P . . ' y . . . 1 x Z v 3 @ . . 6 o.# . n R L . .         . . ! ` ` ` ` ` ` ` ` _ t . . .                       . . ",
"      . + o.. . #.-.-.' + . . . . . . . X I -.#.{ @ . L 4 .           . . ! ` ` ` ` ` ` ` ` ` ` ) : . . .                 . . . ",
"      . . . . +.-.-.-.-.-.#.j % . @ g +.-.-.-.-.O.o.. . . .           . . ! ` ` ` ` ` ` ` ` ` ` ` ` ! # . . .         . . . . . ",
"        . . h -.-.-.-.-.-.-.-.O.. L -.-.-.-.-.-.*.T P . .             . . ! ` ` ` ` ` ` ` ` ` ` ` ` ` ` p o . . . . . . # s . . ",
"        . $ -.-.-.-.-.-.-.-.-.o.. L -.-.-.-.-.-.-.#.T 4 .             . . ~ ` ` ` ` ` ` ` ` ` ` ` ` ` ` ` ` Q t < < r W s s . . ",
"      . . ' -.-.-.-.-.-.-.-.-.O.. L -.-.-.-.-.-.-.-.T o.. .           . . ~ ` ` ` ` ` ` ` ` ` ` ` ` ` ` ` ` ` ` ` ` ` ~ s s . . ",
"      . $ -.-.-.-.-.-.-.-.-.-.o.. L -.-.-.-.-.-.-.-.+.T 5 .           . . ! ` ` ` ` ` ` ` ` ` ` ` ` ` ` ` ` ` ` ` ` ` ~ s a . . ",
"    . . P -.-.-.-.-.-.-.-.-.-.o.. L -.-.-.-.-.-.-.-.%.Y R . .         . . ! ` ` ` ` ` ` ` ` ` ` ` ` ` ` ` ` ` ` ` ` ` ~ s s . . ",
"    . . %.-.-.-.-.-.-.-.-.-.-.O.. L -.-.-.-.-.-.-.-.=.T { . .         . . ~ ` ` ` ` ` ` ` ` ` ` ` ` ` ` ` ` ` ` ` ` ` ~ s s . . ",
"    . X -.-.-.-.-.-.-.-.-.-.-.o.. L -.-.-.-.-.-.-.-.-.o.R * .         . . Q ^ E E / ` ` ` ` ` ` ` ` ` ` ` ` ` ` ` ` ` ~ s s . . ",
"    . 2 -.-.-.-.-.-.-.-.-.-.-.O.. L -.-.-.-.-.-.-.-.-.+.R l .         . . . . . . . o a ` ` ` ` ` ` ` ` ` ` ` ` ` ` ` ~ s s . . ",
"    . y -.-.-.-.-.-.-.-.-.-.-.O.. L -.-.-.-.-.-.-.-.-.#.U H .         . . . . . . . X X o s ` ` ` ` ` ` ` ` ` ` ` ` ` ~ a s . . ",
"    . j -.-.-.-.-.-.-.-.-.-.-.O.. L -.-.-.-.-.-.-.-.-.#.T L .         . .             . . . ; ^ ` ` ` ` ` ` ` ` ` ` ` ~ a s X . ",
"    . u -.-.-.-.-.-.-.-.-.-.-.o.. L -.-.-.-.-.-.-.-.-.#.T K .         . .                 . . . q _ ` ` ` ` ` ` ` ` ` ~ s s . . ",
"    . 5 -.-.-.-.-.-.-.-.-.-.-.o.. L -.-.-.-.-.-.-.-.-.+.Y n .         . .                     . . . r ) ` ` ` ` ` ` ` ~ s a . . ",
"    . @ -.-.-.-.-.-.-.-.-.-.-.O.. L -.-.-.-.-.-.-.-.-.O.Y 5 .         . .                       . . . . * i Q ) ` _ / W a 0 . . ",
"    . . -.-.-.-.-.-.-.-.-.-.-.O.. U -.-.-.-.-.-.-.-.-.T T + .         . .                           . . . . . . . . . . . . . X ",
"    . . @.-.*.o.u U -.-.-.-.-.-.o.-.-.-.-.-.-.M h +.&.T o.. .         . .                                   . . . . . .         ",
"      . # + . . . . O.-.-.-.-.-.-.-.-.-.-.-.T . . . . $ > .           . .                                                       ",
"      . . . > N U . o =.-.-.-.-.-.-.-.-.-.=.X . T n 3 . . .           . .                                                       ",
"      . . M -.-.-.b . M -.-.-.-.-.-.-.-.-.l . J -.*.T T . .           . .                                                       ",
"        . X -.-.-.-.. . -.-.-.-.-.-.-.-.-.. + -.-.$.T % .             . .                                                       ",
"        . . w -.-.-.4 . %.-.-.-.-.-.-.-.&.. 4 -.-.o.H . .             . .                                                       ",
"          . . 4 R J o . =.-.-.-.-.-.-.-.-.. . B o.k . .               . .                                                       ",
"          . . . . . . L -.-.-.B w M =.-.-.' . . . . . .               . .                                                       ",
"          . . z ' o.*.-.-.-.$ . . . # -.-.-.=.' I L . .               . .                                                       ",
"          . . O.-.-.-.-.-.@.. .   . . U -.-.-.-.%.o.. .               . .                                                       ",
"          . . o.-.-.-.-.-.M .       . g -.-.-.-.%.o.. .               . .                                                       ",
"          . . R -.-.-.-.-.l .       . 6 -.-.-.-.%.R . .               . .                                                       ",
"            . U -.-.-.-.-.u .       . 2 -.-.-.-.%.o.. .               . .                                                       ",
"            . L -.-.-.-.-.6 .       . = -.-.-.-.%.R . .               . .                                                       ",
"            . J -.-.-.-.-.2 .       . @ -.-.-.-.$.T . .               . .                                                       ",
"            . N -.-.-.-.-.= .       . o -.-.-.-.$.Y .                 . .                                                       ",
"            . n -.-.-.-.-.$ .       . . -.-.-.-.$.I .                 . .                                                       ",
"            . j *.&.&.*.=.o .       . . =.*.*.*.#.K .                 . .                                                       ",
"            . . . . . . . . .       . . . . . . . . .                 . .                                                       ",
"            . . > 4 4 4 @ . .       . . + 4 4 4 4 . .                 . .                                                       ",
"            . 6 -.-.-.-.*.. .       . . %.-.-.-.#.m . .               . .                                                       ",
"            . $ +.$.$.$.n . .       . . j $.$.$.O.> .                 . .                                                       ",
"            . . . . . . . .           . . . . . . . .                 . .                                                       ",
"                . . . . .               . . . . .                       .                                                       ",
"                                                                                                                                ",
"                                                                                                                                ",
"                                                                                                                                "
};
